<svg xmlns="http://www.w3.org/2000/svg" viewBox="0 0 800 250">
  <rect width="800" height="250" fill="#ffffff"/>
  <text x="400" y="35" fill="#1f2937" font-size="20" font-weight="bold" text-anchor="middle" font-family="sans-serif">Number Formats Benchmarks</text>
  <text x="400" y="55" fill="#9ca3af" font-size="12" text-anchor="middle" font-family="sans-serif">Operations per second (higher is better)</text>
  <text x="170" y="85" fill="#1f2937" font-size="13" text-anchor="end" font-family="sans-serif">z.int()</text>
  <rect x="180" y="60" width="470" height="18" fill="#059669" rx="3"/>
  <text x="655" y="74" fill="#059669" font-size="11" font-family="sans-serif">45.8M/s</text>
  <rect x="180" y="80" width="11" height="18" fill="#4f46e5" rx="3"/>
  <text x="196" y="94" fill="#4f46e5" font-size="11" font-family="sans-serif">1.0M/s</text>
  <rect x="670" y="65" width="70" height="30" fill="#22c55e" rx="15"/>
  <text x="705" y="85" fill="white" font-size="13" font-weight="bold" text-anchor="middle" font-family="sans-serif">44.1x</text>
  <text x="170" y="135" fill="#1f2937" font-size="13" text-anchor="end" font-family="sans-serif">z.int32()</text>
  <rect x="180" y="110" width="326" height="18" fill="#059669" rx="3"/>
  <text x="511" y="124" fill="#059669" font-size="11" font-family="sans-serif">31.8M/s</text>
  <rect x="180" y="130" width="11" height="18" fill="#4f46e5" rx="3"/>
  <text x="196" y="144" fill="#4f46e5" font-size="11" font-family="sans-serif">1.1M/s</text>
  <rect x="670" y="115" width="70" height="30" fill="#22c55e" rx="15"/>
  <text x="705" y="135" fill="white" font-size="13" font-weight="bold" text-anchor="middle" font-family="sans-serif">29.5x</text>
  <text x="170" y="185" fill="#1f2937" font-size="13" text-anchor="end" font-family="sans-serif">z.float64()</text>
  <rect x="180" y="160" width="464" height="18" fill="#059669" rx="3"/>
  <text x="649" y="174" fill="#059669" font-size="11" font-family="sans-serif">45.2M/s</text>
  <rect x="180" y="180" width="11" height="18" fill="#4f46e5" rx="3"/>
  <text x="196" y="194" fill="#4f46e5" font-size="11" font-family="sans-serif">1.0M/s</text>
  <rect x="670" y="165" width="70" height="30" fill="#22c55e" rx="15"/>
  <text x="705" y="185" fill="white" font-size="13" font-weight="bold" text-anchor="middle" font-family="sans-serif">43.0x</text>
  <rect x="660" y="220" width="15" height="15" fill="#059669"/>
  <text x="680" y="232" fill="#1f2937" font-size="12" font-family="sans-serif">dhi</text>
  <rect x="720" y="220" width="15" height="15" fill="#4f46e5"/>
  <text x="740" y="232" fill="#1f2937" font-size="12" font-family="sans-serif">Zod</text>
</svg>