<svg xmlns="http://www.w3.org/2000/svg" viewBox="0 0 800 600" style="font-family: system-ui, sans-serif;">
  <defs>
    <linearGradient id="dhiGrad" x1="0%" y1="0%" x2="100%" y2="0%">
      <stop offset="0%" style="stop-color:#10b981;stop-opacity:1" />
      <stop offset="100%" style="stop-color:#34d399;stop-opacity:1" />
    </linearGradient>
    <linearGradient id="zodGrad" x1="0%" y1="0%" x2="100%" y2="0%">
      <stop offset="0%" style="stop-color:#6366f1;stop-opacity:1" />
      <stop offset="100%" style="stop-color:#818cf8;stop-opacity:1" />
    </linearGradient>
  </defs>
  <rect width="800" height="600" fill="#0f172a"/>
  <text x="400" y="35" fill="#f8fafc" font-size="20" font-weight="bold" text-anchor="middle">Top 10 Performance Gains</text>
  <text x="400" y="55" fill="#334155" font-size="12" text-anchor="middle">Operations per second (higher is better)</text>
  <text x="170" y="85" fill="#f8fafc" font-size="13" text-anchor="end">z.coerce.string()</text>
  <rect x="180" y="60" width="214.60055130144445" height="18" fill="url(#dhiGrad)" rx="3"/>
  <text x="399.60055130144445" y="74" fill="#10b981" font-size="11">32.0M/s</text>
  <rect x="180" y="80" width="4.431451606528249" height="18" fill="url(#zodGrad)" rx="3"/>
  <text x="189.43145160652824" y="94" fill="#6366f1" font-size="11">0.7M/s</text>
  <rect x="670" y="65" width="70" height="30" fill="#22c55e" rx="15"/>
  <text x="705" y="85" fill="white" font-size="13" font-weight="bold" text-anchor="middle">48.4x</text>
  <text x="170" y="135" fill="#f8fafc" font-size="13" text-anchor="end">z.coerce.boolean()</text>
  <rect x="180" y="110" width="470" height="18" fill="url(#dhiGrad)" rx="3"/>
  <text x="655" y="124" fill="#10b981" font-size="11">70.0M/s</text>
  <rect x="180" y="130" width="10.105046823290843" height="18" fill="url(#zodGrad)" rx="3"/>
  <text x="195.10504682329085" y="144" fill="#6366f1" font-size="11">1.5M/s</text>
  <rect x="670" y="115" width="70" height="30" fill="#22c55e" rx="15"/>
  <text x="705" y="135" fill="white" font-size="13" font-weight="bold" text-anchor="middle">46.5x</text>
  <text x="170" y="185" fill="#f8fafc" font-size="13" text-anchor="end">z.float64()</text>
  <rect x="180" y="160" width="306.199753690824" height="18" fill="url(#dhiGrad)" rx="3"/>
  <text x="491.199753690824" y="174" fill="#10b981" font-size="11">45.6M/s</text>
  <rect x="180" y="180" width="6.986562908100655" height="18" fill="url(#zodGrad)" rx="3"/>
  <text x="191.98656290810067" y="194" fill="#6366f1" font-size="11">1.0M/s</text>
  <rect x="670" y="165" width="70" height="30" fill="#22c55e" rx="15"/>
  <text x="705" y="185" fill="white" font-size="13" font-weight="bold" text-anchor="middle">43.8x</text>
  <text x="170" y="235" fill="#f8fafc" font-size="13" text-anchor="end">z.int()</text>
  <rect x="180" y="210" width="276.1268939635171" height="18" fill="url(#dhiGrad)" rx="3"/>
  <text x="461.1268939635171" y="224" fill="#10b981" font-size="11">41.1M/s</text>
  <rect x="180" y="230" width="6.883760725140684" height="18" fill="url(#zodGrad)" rx="3"/>
  <text x="191.8837607251407" y="244" fill="#6366f1" font-size="11">1.0M/s</text>
  <rect x="670" y="215" width="70" height="30" fill="#22c55e" rx="15"/>
  <text x="705" y="235" fill="white" font-size="13" font-weight="bold" text-anchor="middle">40.1x</text>
  <text x="170" y="285" fill="#f8fafc" font-size="13" text-anchor="end">z.stringbool()</text>
  <rect x="180" y="260" width="52.13907864718588" height="18" fill="url(#dhiGrad)" rx="3"/>
  <text x="237.1390786471859" y="274" fill="#10b981" font-size="11">7.8M/s</text>
  <rect x="180" y="280" width="1.5387695328666202" height="18" fill="url(#zodGrad)" rx="3"/>
  <text x="186.5387695328666" y="294" fill="#6366f1" font-size="11">0.2M/s</text>
  <rect x="670" y="265" width="70" height="30" fill="#22c55e" rx="15"/>
  <text x="705" y="285" fill="white" font-size="13" font-weight="bold" text-anchor="middle">33.9x</text>
  <text x="170" y="335" fill="#f8fafc" font-size="13" text-anchor="end">z.base64()</text>
  <rect x="180" y="310" width="189.64050831815052" height="18" fill="url(#dhiGrad)" rx="3"/>
  <text x="374.6405083181505" y="324" fill="#10b981" font-size="11">28.2M/s</text>
  <rect x="180" y="330" width="5.970469234785063" height="18" fill="url(#zodGrad)" rx="3"/>
  <text x="190.97046923478507" y="344" fill="#6366f1" font-size="11">0.9M/s</text>
  <rect x="670" y="315" width="70" height="30" fill="#22c55e" rx="15"/>
  <text x="705" y="335" fill="white" font-size="13" font-weight="bold" text-anchor="middle">31.8x</text>
  <text x="170" y="385" fill="#f8fafc" font-size="13" text-anchor="end">z.iso.time()</text>
  <rect x="180" y="360" width="187.89520075844558" height="18" fill="url(#dhiGrad)" rx="3"/>
  <text x="372.8952007584456" y="374" fill="#10b981" font-size="11">28.0M/s</text>
  <rect x="180" y="380" width="5.9761298303442425" height="18" fill="url(#zodGrad)" rx="3"/>
  <text x="190.97612983034423" y="394" fill="#6366f1" font-size="11">0.9M/s</text>
  <rect x="670" y="365" width="70" height="30" fill="#22c55e" rx="15"/>
  <text x="705" y="385" fill="white" font-size="13" font-weight="bold" text-anchor="middle">31.4x</text>
  <text x="170" y="435" fill="#f8fafc" font-size="13" text-anchor="end">z.int32()</text>
  <rect x="180" y="410" width="213.81825452053295" height="18" fill="url(#dhiGrad)" rx="3"/>
  <text x="398.81825452053295" y="424" fill="#10b981" font-size="11">31.8M/s</text>
  <rect x="180" y="430" width="7.424429477726419" height="18" fill="url(#zodGrad)" rx="3"/>
  <text x="192.42442947772642" y="444" fill="#6366f1" font-size="11">1.1M/s</text>
  <rect x="670" y="415" width="70" height="30" fill="#22c55e" rx="15"/>
  <text x="705" y="435" fill="white" font-size="13" font-weight="bold" text-anchor="middle">28.8x</text>
  <text x="170" y="485" fill="#f8fafc" font-size="13" text-anchor="end">z.ulid()</text>
  <rect x="180" y="460" width="182.1187387484845" height="18" fill="url(#dhiGrad)" rx="3"/>
  <text x="367.1187387484845" y="474" fill="#10b981" font-size="11">27.1M/s</text>
  <rect x="180" y="480" width="6.429840091282084" height="18" fill="url(#zodGrad)" rx="3"/>
  <text x="191.42984009128207" y="494" fill="#6366f1" font-size="11">1.0M/s</text>
  <rect x="670" y="465" width="70" height="30" fill="#22c55e" rx="15"/>
  <text x="705" y="485" fill="white" font-size="13" font-weight="bold" text-anchor="middle">28.3x</text>
  <text x="170" y="535" fill="#f8fafc" font-size="13" text-anchor="end">z.iso.date()</text>
  <rect x="180" y="510" width="158.41648734005204" height="18" fill="url(#dhiGrad)" rx="3"/>
  <text x="343.4164873400521" y="524" fill="#10b981" font-size="11">23.6M/s</text>
  <rect x="180" y="530" width="5.960308823646355" height="18" fill="url(#zodGrad)" rx="3"/>
  <text x="190.96030882364636" y="544" fill="#6366f1" font-size="11">0.9M/s</text>
  <rect x="670" y="515" width="70" height="30" fill="#22c55e" rx="15"/>
  <text x="705" y="535" fill="white" font-size="13" font-weight="bold" text-anchor="middle">26.6x</text>
  <rect x="660" y="570" width="15" height="15" fill="url(#dhiGrad)"/>
  <text x="680" y="582" fill="#f8fafc" font-size="12">dhi</text>
  <rect x="720" y="570" width="15" height="15" fill="url(#zodGrad)"/>
  <text x="740" y="582" fill="#f8fafc" font-size="12">Zod</text>
</svg>