<svg xmlns="http://www.w3.org/2000/svg" viewBox="0 0 800 500" style="font-family: system-ui, sans-serif;">
  <defs>
    <linearGradient id="dhiGrad" x1="0%" y1="0%" x2="100%" y2="0%">
      <stop offset="0%" style="stop-color:#10b981;stop-opacity:1" />
      <stop offset="100%" style="stop-color:#34d399;stop-opacity:1" />
    </linearGradient>
    <linearGradient id="zodGrad" x1="0%" y1="0%" x2="100%" y2="0%">
      <stop offset="0%" style="stop-color:#6366f1;stop-opacity:1" />
      <stop offset="100%" style="stop-color:#818cf8;stop-opacity:1" />
    </linearGradient>
  </defs>
  <rect width="800" height="500" fill="#0f172a"/>
  <text x="400" y="35" fill="#f8fafc" font-size="20" font-weight="bold" text-anchor="middle">String Formats Benchmarks</text>
  <text x="400" y="55" fill="#334155" font-size="12" text-anchor="middle">Operations per second (higher is better)</text>
  <text x="170" y="85" fill="#f8fafc" font-size="13" text-anchor="end">z.email()</text>
  <rect x="180" y="60" width="244.86036996750133" height="18" fill="url(#dhiGrad)" rx="3"/>
  <text x="429.86036996750136" y="74" fill="#10b981" font-size="11">8.0M/s</text>
  <rect x="180" y="80" width="12.532438670450455" height="18" fill="url(#zodGrad)" rx="3"/>
  <text x="197.53243867045046" y="94" fill="#6366f1" font-size="11">0.4M/s</text>
  <rect x="670" y="65" width="70" height="30" fill="#22c55e" rx="15"/>
  <text x="705" y="85" fill="white" font-size="13" font-weight="bold" text-anchor="middle">19.5x</text>
  <text x="170" y="135" fill="#f8fafc" font-size="13" text-anchor="end">z.uuid()</text>
  <rect x="180" y="110" width="151.36250980761343" height="18" fill="url(#dhiGrad)" rx="3"/>
  <text x="336.36250980761343" y="124" fill="#10b981" font-size="11">4.9M/s</text>
  <rect x="180" y="130" width="11.09948876542646" height="18" fill="url(#zodGrad)" rx="3"/>
  <text x="196.09948876542646" y="144" fill="#6366f1" font-size="11">0.4M/s</text>
  <rect x="670" y="115" width="70" height="30" fill="#22c55e" rx="15"/>
  <text x="705" y="135" fill="white" font-size="13" font-weight="bold" text-anchor="middle">13.6x</text>
  <text x="170" y="185" fill="#f8fafc" font-size="13" text-anchor="end">z.url()</text>
  <rect x="180" y="160" width="122.76620936688363" height="18" fill="url(#dhiGrad)" rx="3"/>
  <text x="307.76620936688363" y="174" fill="#10b981" font-size="11">4.0M/s</text>
  <rect x="180" y="180" width="8.753273020067288" height="18" fill="url(#zodGrad)" rx="3"/>
  <text x="193.7532730200673" y="194" fill="#6366f1" font-size="11">0.3M/s</text>
  <rect x="670" y="165" width="70" height="30" fill="#22c55e" rx="15"/>
  <text x="705" y="185" fill="white" font-size="13" font-weight="bold" text-anchor="middle">14.0x</text>
  <text x="170" y="235" fill="#f8fafc" font-size="13" text-anchor="end">z.ipv4()</text>
  <rect x="180" y="210" width="134.093218471636" height="18" fill="url(#dhiGrad)" rx="3"/>
  <text x="319.09321847163596" y="224" fill="#10b981" font-size="11">4.4M/s</text>
  <rect x="180" y="230" width="10.000065808790119" height="18" fill="url(#zodGrad)" rx="3"/>
  <text x="195.0000658087901" y="244" fill="#6366f1" font-size="11">0.3M/s</text>
  <rect x="670" y="215" width="70" height="30" fill="#22c55e" rx="15"/>
  <text x="705" y="235" fill="white" font-size="13" font-weight="bold" text-anchor="middle">13.4x</text>
  <text x="170" y="285" fill="#f8fafc" font-size="13" text-anchor="end">z.jwt()</text>
  <rect x="180" y="260" width="214.21444344779795" height="18" fill="url(#dhiGrad)" rx="3"/>
  <text x="399.214443447798" y="274" fill="#10b981" font-size="11">7.0M/s</text>
  <rect x="180" y="280" width="9.929492486778516" height="18" fill="url(#zodGrad)" rx="3"/>
  <text x="194.9294924867785" y="294" fill="#6366f1" font-size="11">0.3M/s</text>
  <rect x="670" y="265" width="70" height="30" fill="#22c55e" rx="15"/>
  <text x="705" y="285" fill="white" font-size="13" font-weight="bold" text-anchor="middle">21.6x</text>
  <text x="170" y="335" fill="#f8fafc" font-size="13" text-anchor="end">z.ulid()</text>
  <rect x="180" y="310" width="463.3900701116599" height="18" fill="url(#dhiGrad)" rx="3"/>
  <text x="648.39007011166" y="324" fill="#10b981" font-size="11">15.1M/s</text>
  <rect x="180" y="330" width="11.487562809863313" height="18" fill="url(#zodGrad)" rx="3"/>
  <text x="196.4875628098633" y="344" fill="#6366f1" font-size="11">0.4M/s</text>
  <rect x="670" y="315" width="70" height="30" fill="#22c55e" rx="15"/>
  <text x="705" y="335" fill="white" font-size="13" font-weight="bold" text-anchor="middle">40.3x</text>
  <text x="170" y="385" fill="#f8fafc" font-size="13" text-anchor="end">z.nanoid()</text>
  <rect x="180" y="360" width="447.33711101707087" height="18" fill="url(#dhiGrad)" rx="3"/>
  <text x="632.3371110170708" y="374" fill="#10b981" font-size="11">14.6M/s</text>
  <rect x="180" y="380" width="11.316141708908809" height="18" fill="url(#zodGrad)" rx="3"/>
  <text x="196.31614170890882" y="394" fill="#6366f1" font-size="11">0.4M/s</text>
  <rect x="670" y="365" width="70" height="30" fill="#22c55e" rx="15"/>
  <text x="705" y="385" fill="white" font-size="13" font-weight="bold" text-anchor="middle">39.5x</text>
  <text x="170" y="435" fill="#f8fafc" font-size="13" text-anchor="end">z.base64()</text>
  <rect x="180" y="410" width="470" height="18" fill="url(#dhiGrad)" rx="3"/>
  <text x="655" y="424" fill="#10b981" font-size="11">15.3M/s</text>
  <rect x="180" y="430" width="10.328277343818797" height="18" fill="url(#zodGrad)" rx="3"/>
  <text x="195.3282773438188" y="444" fill="#6366f1" font-size="11">0.3M/s</text>
  <rect x="670" y="415" width="70" height="30" fill="#22c55e" rx="15"/>
  <text x="705" y="435" fill="white" font-size="13" font-weight="bold" text-anchor="middle">45.5x</text>
  <rect x="660" y="470" width="15" height="15" fill="url(#dhiGrad)"/>
  <text x="680" y="482" fill="#f8fafc" font-size="12">dhi</text>
  <rect x="720" y="470" width="15" height="15" fill="url(#zodGrad)"/>
  <text x="740" y="482" fill="#f8fafc" font-size="12">Zod</text>
</svg>