<svg xmlns="http://www.w3.org/2000/svg" viewBox="0 0 800 200">
  <rect width="800" height="200" fill="#ffffff"/>
  <text x="400" y="35" fill="#1f2937" font-size="20" font-weight="bold" text-anchor="middle" font-family="sans-serif">Objects Benchmarks</text>
  <text x="400" y="55" fill="#9ca3af" font-size="12" text-anchor="middle" font-family="sans-serif">Operations per second (higher is better)</text>
  <text x="170" y="85" fill="#1f2937" font-size="13" text-anchor="end" font-family="sans-serif">Object (valid)</text>
  <rect x="180" y="60" width="319" height="18" fill="#059669" rx="3"/>
  <text x="504" y="74" fill="#059669" font-size="11" font-family="sans-serif">7.7M/s</text>
  <rect x="180" y="80" width="79" height="18" fill="#4f46e5" rx="3"/>
  <text x="264" y="94" fill="#4f46e5" font-size="11" font-family="sans-serif">1.9M/s</text>
  <rect x="670" y="65" width="70" height="30" fill="#f97316" rx="15"/>
  <text x="705" y="85" fill="white" font-size="13" font-weight="bold" text-anchor="middle" font-family="sans-serif">4.0x</text>
  <text x="170" y="135" fill="#1f2937" font-size="13" text-anchor="end" font-family="sans-serif">Nested Object</text>
  <rect x="180" y="110" width="470" height="18" fill="#059669" rx="3"/>
  <text x="655" y="124" fill="#059669" font-size="11" font-family="sans-serif">11.4M/s</text>
  <rect x="180" y="130" width="117" height="18" fill="#4f46e5" rx="3"/>
  <text x="302" y="144" fill="#4f46e5" font-size="11" font-family="sans-serif">2.8M/s</text>
  <rect x="670" y="115" width="70" height="30" fill="#f97316" rx="15"/>
  <text x="705" y="135" fill="white" font-size="13" font-weight="bold" text-anchor="middle" font-family="sans-serif">4.0x</text>
  <rect x="660" y="170" width="15" height="15" fill="#059669"/>
  <text x="680" y="182" fill="#1f2937" font-size="12" font-family="sans-serif">dhi</text>
  <rect x="720" y="170" width="15" height="15" fill="#4f46e5"/>
  <text x="740" y="182" fill="#1f2937" font-size="12" font-family="sans-serif">Zod</text>
</svg>