<svg xmlns="http://www.w3.org/2000/svg" viewBox="0 0 800 500">
  <rect width="800" height="500" fill="#ffffff"/>
  <text x="400" y="35" fill="#1f2937" font-size="20" font-weight="bold" text-anchor="middle" font-family="sans-serif">String Formats Benchmarks</text>
  <text x="400" y="55" fill="#9ca3af" font-size="12" text-anchor="middle" font-family="sans-serif">Operations per second (higher is better)</text>
  <text x="170" y="85" fill="#1f2937" font-size="13" text-anchor="end" font-family="sans-serif">z.email()</text>
  <rect x="180" y="60" width="268" height="18" fill="#059669" rx="3"/>
  <text x="453" y="74" fill="#059669" font-size="11" font-family="sans-serif">15.6M/s</text>
  <rect x="180" y="80" width="19" height="18" fill="#4f46e5" rx="3"/>
  <text x="204" y="94" fill="#4f46e5" font-size="11" font-family="sans-serif">1.1M/s</text>
  <rect x="670" y="65" width="70" height="30" fill="#22c55e" rx="15"/>
  <text x="705" y="85" fill="white" font-size="13" font-weight="bold" text-anchor="middle" font-family="sans-serif">13.9x</text>
  <text x="170" y="135" fill="#1f2937" font-size="13" text-anchor="end" font-family="sans-serif">z.uuid()</text>
  <rect x="180" y="110" width="250" height="18" fill="#059669" rx="3"/>
  <text x="435" y="124" fill="#059669" font-size="11" font-family="sans-serif">14.6M/s</text>
  <rect x="180" y="130" width="17" height="18" fill="#4f46e5" rx="3"/>
  <text x="202" y="144" fill="#4f46e5" font-size="11" font-family="sans-serif">1.0M/s</text>
  <rect x="670" y="115" width="70" height="30" fill="#22c55e" rx="15"/>
  <text x="705" y="135" fill="white" font-size="13" font-weight="bold" text-anchor="middle" font-family="sans-serif">14.8x</text>
  <text x="170" y="185" fill="#1f2937" font-size="13" text-anchor="end" font-family="sans-serif">z.url()</text>
  <rect x="180" y="160" width="155" height="18" fill="#059669" rx="3"/>
  <text x="340" y="174" fill="#059669" font-size="11" font-family="sans-serif">9.0M/s</text>
  <rect x="180" y="180" width="13" height="18" fill="#4f46e5" rx="3"/>
  <text x="198" y="194" fill="#4f46e5" font-size="11" font-family="sans-serif">0.8M/s</text>
  <rect x="670" y="165" width="70" height="30" fill="#22c55e" rx="15"/>
  <text x="705" y="185" fill="white" font-size="13" font-weight="bold" text-anchor="middle" font-family="sans-serif">11.9x</text>
  <text x="170" y="235" fill="#1f2937" font-size="13" text-anchor="end" font-family="sans-serif">z.ipv4()</text>
  <rect x="180" y="210" width="166" height="18" fill="#059669" rx="3"/>
  <text x="351" y="224" fill="#059669" font-size="11" font-family="sans-serif">9.7M/s</text>
  <rect x="180" y="230" width="15" height="18" fill="#4f46e5" rx="3"/>
  <text x="200" y="244" fill="#4f46e5" font-size="11" font-family="sans-serif">0.9M/s</text>
  <rect x="670" y="215" width="70" height="30" fill="#22c55e" rx="15"/>
  <text x="705" y="235" fill="white" font-size="13" font-weight="bold" text-anchor="middle" font-family="sans-serif">11.3x</text>
  <text x="170" y="285" fill="#1f2937" font-size="13" text-anchor="end" font-family="sans-serif">z.jwt()</text>
  <rect x="180" y="260" width="244" height="18" fill="#059669" rx="3"/>
  <text x="429" y="274" fill="#059669" font-size="11" font-family="sans-serif">14.2M/s</text>
  <rect x="180" y="280" width="15" height="18" fill="#4f46e5" rx="3"/>
  <text x="200" y="294" fill="#4f46e5" font-size="11" font-family="sans-serif">0.8M/s</text>
  <rect x="670" y="265" width="70" height="30" fill="#22c55e" rx="15"/>
  <text x="705" y="285" fill="white" font-size="13" font-weight="bold" text-anchor="middle" font-family="sans-serif">16.8x</text>
  <text x="170" y="335" fill="#1f2937" font-size="13" text-anchor="end" font-family="sans-serif">z.ulid()</text>
  <rect x="180" y="310" width="458" height="18" fill="#059669" rx="3"/>
  <text x="643" y="324" fill="#059669" font-size="11" font-family="sans-serif">26.7M/s</text>
  <rect x="180" y="330" width="17" height="18" fill="#4f46e5" rx="3"/>
  <text x="202" y="344" fill="#4f46e5" font-size="11" font-family="sans-serif">1.0M/s</text>
  <rect x="670" y="315" width="70" height="30" fill="#22c55e" rx="15"/>
  <text x="705" y="335" fill="white" font-size="13" font-weight="bold" text-anchor="middle" font-family="sans-serif">27.5x</text>
  <text x="170" y="385" fill="#1f2937" font-size="13" text-anchor="end" font-family="sans-serif">z.nanoid()</text>
  <rect x="180" y="360" width="427" height="18" fill="#059669" rx="3"/>
  <text x="612" y="374" fill="#059669" font-size="11" font-family="sans-serif">24.9M/s</text>
  <rect x="180" y="380" width="17" height="18" fill="#4f46e5" rx="3"/>
  <text x="202" y="394" fill="#4f46e5" font-size="11" font-family="sans-serif">1.0M/s</text>
  <rect x="670" y="365" width="70" height="30" fill="#22c55e" rx="15"/>
  <text x="705" y="385" fill="white" font-size="13" font-weight="bold" text-anchor="middle" font-family="sans-serif">25.3x</text>
  <text x="170" y="435" fill="#1f2937" font-size="13" text-anchor="end" font-family="sans-serif">z.base64()</text>
  <rect x="180" y="410" width="470" height="18" fill="#059669" rx="3"/>
  <text x="655" y="424" fill="#059669" font-size="11" font-family="sans-serif">27.4M/s</text>
  <rect x="180" y="430" width="15" height="18" fill="#4f46e5" rx="3"/>
  <text x="200" y="444" fill="#4f46e5" font-size="11" font-family="sans-serif">0.9M/s</text>
  <rect x="670" y="415" width="70" height="30" fill="#22c55e" rx="15"/>
  <text x="705" y="435" fill="white" font-size="13" font-weight="bold" text-anchor="middle" font-family="sans-serif">31.8x</text>
  <rect x="660" y="470" width="15" height="15" fill="#059669"/>
  <text x="680" y="482" fill="#1f2937" font-size="12" font-family="sans-serif">dhi</text>
  <rect x="720" y="470" width="15" height="15" fill="#4f46e5"/>
  <text x="740" y="482" fill="#1f2937" font-size="12" font-family="sans-serif">Zod</text>
</svg>