<svg xmlns="http://www.w3.org/2000/svg" viewBox="0 0 800 250" style="font-family: system-ui, sans-serif;">
  <defs>
    <linearGradient id="dhiGrad" x1="0%" y1="0%" x2="100%" y2="0%">
      <stop offset="0%" style="stop-color:#059669;stop-opacity:1" />
      <stop offset="100%" style="stop-color:#34d399;stop-opacity:1" />
    </linearGradient>
    <linearGradient id="zodGrad" x1="0%" y1="0%" x2="100%" y2="0%">
      <stop offset="0%" style="stop-color:#4f46e5;stop-opacity:1" />
      <stop offset="100%" style="stop-color:#818cf8;stop-opacity:1" />
    </linearGradient>
  </defs>
  <rect width="800" height="250" fill="#ffffff"/>
  <text x="400" y="35" fill="#1f2937" font-size="20" font-weight="bold" text-anchor="middle">Coercion Benchmarks</text>
  <text x="400" y="55" fill="#9ca3af" font-size="12" text-anchor="middle">Operations per second (higher is better)</text>
  <text x="170" y="85" fill="#1f2937" font-size="13" text-anchor="end">z.coerce.string()</text>
  <rect x="180" y="60" width="198.4427021046065" height="18" fill="url(#dhiGrad)" rx="3"/>
  <text x="383.4427021046065" y="74" fill="#059669" font-size="11">16.9M/s</text>
  <rect x="180" y="80" width="3.5050875391961265" height="18" fill="url(#zodGrad)" rx="3"/>
  <text x="188.50508753919613" y="94" fill="#4f46e5" font-size="11">0.3M/s</text>
  <rect x="670" y="65" width="70" height="30" fill="#22c55e" rx="15"/>
  <text x="705" y="85" fill="white" font-size="13" font-weight="bold" text-anchor="middle">56.6x</text>
  <text x="170" y="135" fill="#1f2937" font-size="13" text-anchor="end">z.coerce.number()</text>
  <rect x="180" y="110" width="205.44417003047116" height="18" fill="url(#dhiGrad)" rx="3"/>
  <text x="390.4441700304711" y="124" fill="#059669" font-size="11">17.5M/s</text>
  <rect x="180" y="130" width="5.406531249261709" height="18" fill="url(#zodGrad)" rx="3"/>
  <text x="190.40653124926172" y="144" fill="#4f46e5" font-size="11">0.5M/s</text>
  <rect x="670" y="115" width="70" height="30" fill="#22c55e" rx="15"/>
  <text x="705" y="135" fill="white" font-size="13" font-weight="bold" text-anchor="middle">38.0x</text>
  <text x="170" y="185" fill="#1f2937" font-size="13" text-anchor="end">z.coerce.boolean()</text>
  <rect x="180" y="160" width="470" height="18" fill="url(#dhiGrad)" rx="3"/>
  <text x="655" y="174" fill="#059669" font-size="11">39.9M/s</text>
  <rect x="180" y="180" width="6.43580181498715" height="18" fill="url(#zodGrad)" rx="3"/>
  <text x="191.43580181498714" y="194" fill="#4f46e5" font-size="11">0.5M/s</text>
  <rect x="670" y="165" width="70" height="30" fill="#22c55e" rx="15"/>
  <text x="705" y="185" fill="white" font-size="13" font-weight="bold" text-anchor="middle">73.0x</text>
  <rect x="660" y="220" width="15" height="15" fill="url(#dhiGrad)"/>
  <text x="680" y="232" fill="#1f2937" font-size="12">dhi</text>
  <rect x="720" y="220" width="15" height="15" fill="url(#zodGrad)"/>
  <text x="740" y="232" fill="#1f2937" font-size="12">Zod</text>
</svg>