<svg xmlns="http://www.w3.org/2000/svg" viewBox="0 0 800 250" style="font-family: system-ui, sans-serif;">
  <defs>
    <linearGradient id="dhiGrad" x1="0%" y1="0%" x2="100%" y2="0%">
      <stop offset="0%" style="stop-color:#10b981;stop-opacity:1" />
      <stop offset="100%" style="stop-color:#34d399;stop-opacity:1" />
    </linearGradient>
    <linearGradient id="zodGrad" x1="0%" y1="0%" x2="100%" y2="0%">
      <stop offset="0%" style="stop-color:#6366f1;stop-opacity:1" />
      <stop offset="100%" style="stop-color:#818cf8;stop-opacity:1" />
    </linearGradient>
  </defs>
  <rect width="800" height="250" fill="#0f172a"/>
  <text x="400" y="35" fill="#f8fafc" font-size="20" font-weight="bold" text-anchor="middle">ISO Formats Benchmarks</text>
  <text x="400" y="55" fill="#334155" font-size="12" text-anchor="middle">Operations per second (higher is better)</text>
  <text x="170" y="85" fill="#f8fafc" font-size="13" text-anchor="end">z.iso.date()</text>
  <rect x="180" y="60" width="470" height="18" fill="url(#dhiGrad)" rx="3"/>
  <text x="655" y="74" fill="#10b981" font-size="11">14.4M/s</text>
  <rect x="180" y="80" width="11.269844443754415" height="18" fill="url(#zodGrad)" rx="3"/>
  <text x="196.2698444437544" y="94" fill="#6366f1" font-size="11">0.3M/s</text>
  <rect x="670" y="65" width="70" height="30" fill="#22c55e" rx="15"/>
  <text x="705" y="85" fill="white" font-size="13" font-weight="bold" text-anchor="middle">41.7x</text>
  <text x="170" y="135" fill="#f8fafc" font-size="13" text-anchor="end">z.iso.time()</text>
  <rect x="180" y="110" width="445.95354891144405" height="18" fill="url(#dhiGrad)" rx="3"/>
  <text x="630.953548911444" y="124" fill="#10b981" font-size="11">13.7M/s</text>
  <rect x="180" y="130" width="10.977195439105275" height="18" fill="url(#zodGrad)" rx="3"/>
  <text x="195.9771954391053" y="144" fill="#6366f1" font-size="11">0.3M/s</text>
  <rect x="670" y="115" width="70" height="30" fill="#22c55e" rx="15"/>
  <text x="705" y="135" fill="white" font-size="13" font-weight="bold" text-anchor="middle">40.6x</text>
  <text x="170" y="185" fill="#f8fafc" font-size="13" text-anchor="end">z.iso.datetime()</text>
  <rect x="180" y="160" width="121.46544747145862" height="18" fill="url(#dhiGrad)" rx="3"/>
  <text x="306.4654474714586" y="174" fill="#10b981" font-size="11">3.7M/s</text>
  <rect x="180" y="180" width="9.169605585739752" height="18" fill="url(#zodGrad)" rx="3"/>
  <text x="194.16960558573976" y="194" fill="#6366f1" font-size="11">0.3M/s</text>
  <rect x="670" y="165" width="70" height="30" fill="#22c55e" rx="15"/>
  <text x="705" y="185" fill="white" font-size="13" font-weight="bold" text-anchor="middle">13.2x</text>
  <rect x="660" y="220" width="15" height="15" fill="url(#dhiGrad)"/>
  <text x="680" y="232" fill="#f8fafc" font-size="12">dhi</text>
  <rect x="720" y="220" width="15" height="15" fill="url(#zodGrad)"/>
  <text x="740" y="232" fill="#f8fafc" font-size="12">Zod</text>
</svg>