<svg xmlns="http://www.w3.org/2000/svg" viewBox="0 0 800 500" style="font-family: system-ui, sans-serif;">
  <defs>
    <linearGradient id="dhiGrad" x1="0%" y1="0%" x2="100%" y2="0%">
      <stop offset="0%" style="stop-color:#059669;stop-opacity:1" />
      <stop offset="100%" style="stop-color:#34d399;stop-opacity:1" />
    </linearGradient>
    <linearGradient id="zodGrad" x1="0%" y1="0%" x2="100%" y2="0%">
      <stop offset="0%" style="stop-color:#4f46e5;stop-opacity:1" />
      <stop offset="100%" style="stop-color:#818cf8;stop-opacity:1" />
    </linearGradient>
  </defs>
  <rect width="800" height="500" fill="#ffffff"/>
  <text x="400" y="35" fill="#1f2937" font-size="20" font-weight="bold" text-anchor="middle">String Formats Benchmarks</text>
  <text x="400" y="55" fill="#9ca3af" font-size="12" text-anchor="middle">Operations per second (higher is better)</text>
  <text x="170" y="85" fill="#1f2937" font-size="13" text-anchor="end">z.email()</text>
  <rect x="180" y="60" width="245.5290771652821" height="18" fill="url(#dhiGrad)" rx="3"/>
  <text x="430.5290771652821" y="74" fill="#059669" font-size="11">7.6M/s</text>
  <rect x="180" y="80" width="12.240961926370948" height="18" fill="url(#zodGrad)" rx="3"/>
  <text x="197.24096192637094" y="94" fill="#4f46e5" font-size="11">0.4M/s</text>
  <rect x="670" y="65" width="70" height="30" fill="#22c55e" rx="15"/>
  <text x="705" y="85" fill="white" font-size="13" font-weight="bold" text-anchor="middle">20.1x</text>
  <text x="170" y="135" fill="#1f2937" font-size="13" text-anchor="end">z.uuid()</text>
  <rect x="180" y="110" width="237.49183016996676" height="18" fill="url(#dhiGrad)" rx="3"/>
  <text x="422.49183016996676" y="124" fill="#059669" font-size="11">7.3M/s</text>
  <rect x="180" y="130" width="10.741842902969337" height="18" fill="url(#zodGrad)" rx="3"/>
  <text x="195.74184290296932" y="144" fill="#4f46e5" font-size="11">0.3M/s</text>
  <rect x="670" y="115" width="70" height="30" fill="#22c55e" rx="15"/>
  <text x="705" y="135" fill="white" font-size="13" font-weight="bold" text-anchor="middle">22.1x</text>
  <text x="170" y="185" fill="#1f2937" font-size="13" text-anchor="end">z.url()</text>
  <rect x="180" y="160" width="116.61227392080872" height="18" fill="url(#dhiGrad)" rx="3"/>
  <text x="301.6122739208087" y="174" fill="#059669" font-size="11">3.6M/s</text>
  <rect x="180" y="180" width="9.261822230937485" height="18" fill="url(#zodGrad)" rx="3"/>
  <text x="194.2618222309375" y="194" fill="#4f46e5" font-size="11">0.3M/s</text>
  <rect x="670" y="165" width="70" height="30" fill="#22c55e" rx="15"/>
  <text x="705" y="185" fill="white" font-size="13" font-weight="bold" text-anchor="middle">12.6x</text>
  <text x="170" y="235" fill="#1f2937" font-size="13" text-anchor="end">z.ipv4()</text>
  <rect x="180" y="210" width="152.57013770938693" height="18" fill="url(#dhiGrad)" rx="3"/>
  <text x="337.5701377093869" y="224" fill="#059669" font-size="11">4.7M/s</text>
  <rect x="180" y="230" width="10.475544946357166" height="18" fill="url(#zodGrad)" rx="3"/>
  <text x="195.47554494635716" y="244" fill="#4f46e5" font-size="11">0.3M/s</text>
  <rect x="670" y="215" width="70" height="30" fill="#22c55e" rx="15"/>
  <text x="705" y="235" fill="white" font-size="13" font-weight="bold" text-anchor="middle">14.6x</text>
  <text x="170" y="285" fill="#1f2937" font-size="13" text-anchor="end">z.jwt()</text>
  <rect x="180" y="260" width="252.30929663009383" height="18" fill="url(#dhiGrad)" rx="3"/>
  <text x="437.30929663009385" y="274" fill="#059669" font-size="11">7.8M/s</text>
  <rect x="180" y="280" width="10.236763250276857" height="18" fill="url(#zodGrad)" rx="3"/>
  <text x="195.23676325027685" y="294" fill="#4f46e5" font-size="11">0.3M/s</text>
  <rect x="670" y="265" width="70" height="30" fill="#22c55e" rx="15"/>
  <text x="705" y="285" fill="white" font-size="13" font-weight="bold" text-anchor="middle">24.6x</text>
  <text x="170" y="335" fill="#1f2937" font-size="13" text-anchor="end">z.ulid()</text>
  <rect x="180" y="310" width="422.37282390558744" height="18" fill="url(#dhiGrad)" rx="3"/>
  <text x="607.3728239055874" y="324" fill="#059669" font-size="11">13.1M/s</text>
  <rect x="180" y="330" width="11.596926558936023" height="18" fill="url(#zodGrad)" rx="3"/>
  <text x="196.59692655893602" y="344" fill="#4f46e5" font-size="11">0.4M/s</text>
  <rect x="670" y="315" width="70" height="30" fill="#22c55e" rx="15"/>
  <text x="705" y="335" fill="white" font-size="13" font-weight="bold" text-anchor="middle">36.4x</text>
  <text x="170" y="385" fill="#1f2937" font-size="13" text-anchor="end">z.nanoid()</text>
  <rect x="180" y="360" width="435.6738231473093" height="18" fill="url(#dhiGrad)" rx="3"/>
  <text x="620.6738231473093" y="374" fill="#059669" font-size="11">13.5M/s</text>
  <rect x="180" y="380" width="11.283427906732022" height="18" fill="url(#zodGrad)" rx="3"/>
  <text x="196.28342790673202" y="394" fill="#4f46e5" font-size="11">0.3M/s</text>
  <rect x="670" y="365" width="70" height="30" fill="#22c55e" rx="15"/>
  <text x="705" y="385" fill="white" font-size="13" font-weight="bold" text-anchor="middle">38.6x</text>
  <text x="170" y="435" fill="#1f2937" font-size="13" text-anchor="end">z.base64()</text>
  <rect x="180" y="410" width="470" height="18" fill="url(#dhiGrad)" rx="3"/>
  <text x="655" y="424" fill="#059669" font-size="11">14.5M/s</text>
  <rect x="180" y="430" width="10.18583622146378" height="18" fill="url(#zodGrad)" rx="3"/>
  <text x="195.18583622146377" y="444" fill="#4f46e5" font-size="11">0.3M/s</text>
  <rect x="670" y="415" width="70" height="30" fill="#22c55e" rx="15"/>
  <text x="705" y="435" fill="white" font-size="13" font-weight="bold" text-anchor="middle">46.1x</text>
  <rect x="660" y="470" width="15" height="15" fill="url(#dhiGrad)"/>
  <text x="680" y="482" fill="#1f2937" font-size="12">dhi</text>
  <rect x="720" y="470" width="15" height="15" fill="url(#zodGrad)"/>
  <text x="740" y="482" fill="#1f2937" font-size="12">Zod</text>
</svg>