<svg xmlns="http://www.w3.org/2000/svg" viewBox="0 0 800 500">
  <rect width="800" height="500" fill="#ffffff"/>
  <text x="400" y="35" fill="#1f2937" font-size="20" font-weight="bold" text-anchor="middle" font-family="sans-serif">String Formats Benchmarks</text>
  <text x="400" y="55" fill="#9ca3af" font-size="12" text-anchor="middle" font-family="sans-serif">Operations per second (higher is better)</text>
  <text x="170" y="85" fill="#1f2937" font-size="13" text-anchor="end" font-family="sans-serif">z.email()</text>
  <rect x="180" y="60" width="235" height="18" fill="#059669" rx="3"/>
  <text x="420" y="74" fill="#059669" font-size="11" font-family="sans-serif">7.3M/s</text>
  <rect x="180" y="80" width="12" height="18" fill="#4f46e5" rx="3"/>
  <text x="197" y="94" fill="#4f46e5" font-size="11" font-family="sans-serif">0.4M/s</text>
  <rect x="670" y="65" width="70" height="30" fill="#22c55e" rx="15"/>
  <text x="705" y="85" fill="white" font-size="13" font-weight="bold" text-anchor="middle" font-family="sans-serif">20.0x</text>
  <text x="170" y="135" fill="#1f2937" font-size="13" text-anchor="end" font-family="sans-serif">z.uuid()</text>
  <rect x="180" y="110" width="225" height="18" fill="#059669" rx="3"/>
  <text x="410" y="124" fill="#059669" font-size="11" font-family="sans-serif">7.0M/s</text>
  <rect x="180" y="130" width="10" height="18" fill="#4f46e5" rx="3"/>
  <text x="195" y="144" fill="#4f46e5" font-size="11" font-family="sans-serif">0.3M/s</text>
  <rect x="670" y="115" width="70" height="30" fill="#22c55e" rx="15"/>
  <text x="705" y="135" fill="white" font-size="13" font-weight="bold" text-anchor="middle" font-family="sans-serif">22.3x</text>
  <text x="170" y="185" fill="#1f2937" font-size="13" text-anchor="end" font-family="sans-serif">z.url()</text>
  <rect x="180" y="160" width="118" height="18" fill="#059669" rx="3"/>
  <text x="303" y="174" fill="#059669" font-size="11" font-family="sans-serif">3.7M/s</text>
  <rect x="180" y="180" width="9" height="18" fill="#4f46e5" rx="3"/>
  <text x="194" y="194" fill="#4f46e5" font-size="11" font-family="sans-serif">0.3M/s</text>
  <rect x="670" y="165" width="70" height="30" fill="#22c55e" rx="15"/>
  <text x="705" y="185" fill="white" font-size="13" font-weight="bold" text-anchor="middle" font-family="sans-serif">13.4x</text>
  <text x="170" y="235" fill="#1f2937" font-size="13" text-anchor="end" font-family="sans-serif">z.ipv4()</text>
  <rect x="180" y="210" width="144" height="18" fill="#059669" rx="3"/>
  <text x="329" y="224" fill="#059669" font-size="11" font-family="sans-serif">4.4M/s</text>
  <rect x="180" y="230" width="10" height="18" fill="#4f46e5" rx="3"/>
  <text x="195" y="244" fill="#4f46e5" font-size="11" font-family="sans-serif">0.3M/s</text>
  <rect x="670" y="215" width="70" height="30" fill="#22c55e" rx="15"/>
  <text x="705" y="235" fill="white" font-size="13" font-weight="bold" text-anchor="middle" font-family="sans-serif">14.2x</text>
  <text x="170" y="285" fill="#1f2937" font-size="13" text-anchor="end" font-family="sans-serif">z.jwt()</text>
  <rect x="180" y="260" width="243" height="18" fill="#059669" rx="3"/>
  <text x="428" y="274" fill="#059669" font-size="11" font-family="sans-serif">7.5M/s</text>
  <rect x="180" y="280" width="9" height="18" fill="#4f46e5" rx="3"/>
  <text x="194" y="294" fill="#4f46e5" font-size="11" font-family="sans-serif">0.3M/s</text>
  <rect x="670" y="265" width="70" height="30" fill="#22c55e" rx="15"/>
  <text x="705" y="285" fill="white" font-size="13" font-weight="bold" text-anchor="middle" font-family="sans-serif">25.6x</text>
  <text x="170" y="335" fill="#1f2937" font-size="13" text-anchor="end" font-family="sans-serif">z.ulid()</text>
  <rect x="180" y="310" width="455" height="18" fill="#059669" rx="3"/>
  <text x="640" y="324" fill="#059669" font-size="11" font-family="sans-serif">14.1M/s</text>
  <rect x="180" y="330" width="11" height="18" fill="#4f46e5" rx="3"/>
  <text x="196" y="344" fill="#4f46e5" font-size="11" font-family="sans-serif">0.3M/s</text>
  <rect x="670" y="315" width="70" height="30" fill="#22c55e" rx="15"/>
  <text x="705" y="335" fill="white" font-size="13" font-weight="bold" text-anchor="middle" font-family="sans-serif">42.5x</text>
  <text x="170" y="385" fill="#1f2937" font-size="13" text-anchor="end" font-family="sans-serif">z.nanoid()</text>
  <rect x="180" y="360" width="422" height="18" fill="#059669" rx="3"/>
  <text x="607" y="374" fill="#059669" font-size="11" font-family="sans-serif">13.1M/s</text>
  <rect x="180" y="380" width="10" height="18" fill="#4f46e5" rx="3"/>
  <text x="195" y="394" fill="#4f46e5" font-size="11" font-family="sans-serif">0.3M/s</text>
  <rect x="670" y="365" width="70" height="30" fill="#22c55e" rx="15"/>
  <text x="705" y="385" fill="white" font-size="13" font-weight="bold" text-anchor="middle" font-family="sans-serif">40.9x</text>
  <text x="170" y="435" fill="#1f2937" font-size="13" text-anchor="end" font-family="sans-serif">z.base64()</text>
  <rect x="180" y="410" width="470" height="18" fill="#059669" rx="3"/>
  <text x="655" y="424" fill="#059669" font-size="11" font-family="sans-serif">14.5M/s</text>
  <rect x="180" y="430" width="9" height="18" fill="#4f46e5" rx="3"/>
  <text x="194" y="444" fill="#4f46e5" font-size="11" font-family="sans-serif">0.3M/s</text>
  <rect x="670" y="415" width="70" height="30" fill="#22c55e" rx="15"/>
  <text x="705" y="435" fill="white" font-size="13" font-weight="bold" text-anchor="middle" font-family="sans-serif">49.6x</text>
  <rect x="660" y="470" width="15" height="15" fill="#059669"/>
  <text x="680" y="482" fill="#1f2937" font-size="12" font-family="sans-serif">dhi</text>
  <rect x="720" y="470" width="15" height="15" fill="#4f46e5"/>
  <text x="740" y="482" fill="#1f2937" font-size="12" font-family="sans-serif">Zod</text>
</svg>