<svg xmlns="http://www.w3.org/2000/svg" viewBox="0 0 800 250" style="font-family: system-ui, sans-serif;">
  <defs>
    <linearGradient id="dhiGrad" x1="0%" y1="0%" x2="100%" y2="0%">
      <stop offset="0%" style="stop-color:#10b981;stop-opacity:1" />
      <stop offset="100%" style="stop-color:#34d399;stop-opacity:1" />
    </linearGradient>
    <linearGradient id="zodGrad" x1="0%" y1="0%" x2="100%" y2="0%">
      <stop offset="0%" style="stop-color:#6366f1;stop-opacity:1" />
      <stop offset="100%" style="stop-color:#818cf8;stop-opacity:1" />
    </linearGradient>
  </defs>
  <rect width="800" height="250" fill="#0f172a"/>
  <text x="400" y="35" fill="#f8fafc" font-size="20" font-weight="bold" text-anchor="middle">ISO Formats Benchmarks</text>
  <text x="400" y="55" fill="#334155" font-size="12" text-anchor="middle">Operations per second (higher is better)</text>
  <text x="170" y="85" fill="#f8fafc" font-size="13" text-anchor="end">z.iso.date()</text>
  <rect x="180" y="60" width="470" height="18" fill="url(#dhiGrad)" rx="3"/>
  <text x="655" y="74" fill="#10b981" font-size="11">14.4M/s</text>
  <rect x="180" y="80" width="10.927351225845511" height="18" fill="url(#zodGrad)" rx="3"/>
  <text x="195.9273512258455" y="94" fill="#6366f1" font-size="11">0.3M/s</text>
  <rect x="670" y="65" width="70" height="30" fill="#22c55e" rx="15"/>
  <text x="705" y="85" fill="white" font-size="13" font-weight="bold" text-anchor="middle">43.0x</text>
  <text x="170" y="135" fill="#f8fafc" font-size="13" text-anchor="end">z.iso.time()</text>
  <rect x="180" y="110" width="446.4581834046436" height="18" fill="url(#dhiGrad)" rx="3"/>
  <text x="631.4581834046436" y="124" fill="#10b981" font-size="11">13.7M/s</text>
  <rect x="180" y="130" width="10.747494647574742" height="18" fill="url(#zodGrad)" rx="3"/>
  <text x="195.74749464757474" y="144" fill="#6366f1" font-size="11">0.3M/s</text>
  <rect x="670" y="115" width="70" height="30" fill="#22c55e" rx="15"/>
  <text x="705" y="135" fill="white" font-size="13" font-weight="bold" text-anchor="middle">41.5x</text>
  <text x="170" y="185" fill="#f8fafc" font-size="13" text-anchor="end">z.iso.datetime()</text>
  <rect x="180" y="160" width="124.31432630761093" height="18" fill="url(#dhiGrad)" rx="3"/>
  <text x="309.31432630761094" y="174" fill="#10b981" font-size="11">3.8M/s</text>
  <rect x="180" y="180" width="8.979807783101231" height="18" fill="url(#zodGrad)" rx="3"/>
  <text x="193.97980778310122" y="194" fill="#6366f1" font-size="11">0.3M/s</text>
  <rect x="670" y="165" width="70" height="30" fill="#22c55e" rx="15"/>
  <text x="705" y="185" fill="white" font-size="13" font-weight="bold" text-anchor="middle">13.8x</text>
  <rect x="660" y="220" width="15" height="15" fill="url(#dhiGrad)"/>
  <text x="680" y="232" fill="#f8fafc" font-size="12">dhi</text>
  <rect x="720" y="220" width="15" height="15" fill="url(#zodGrad)"/>
  <text x="740" y="232" fill="#f8fafc" font-size="12">Zod</text>
</svg>