<svg xmlns="http://www.w3.org/2000/svg" viewBox="0 0 800 500" style="font-family: system-ui, sans-serif;">
  <defs>
    <linearGradient id="dhiGrad" x1="0%" y1="0%" x2="100%" y2="0%">
      <stop offset="0%" style="stop-color:#10b981;stop-opacity:1" />
      <stop offset="100%" style="stop-color:#34d399;stop-opacity:1" />
    </linearGradient>
    <linearGradient id="zodGrad" x1="0%" y1="0%" x2="100%" y2="0%">
      <stop offset="0%" style="stop-color:#6366f1;stop-opacity:1" />
      <stop offset="100%" style="stop-color:#818cf8;stop-opacity:1" />
    </linearGradient>
  </defs>
  <rect width="800" height="500" fill="#0f172a"/>
  <text x="400" y="35" fill="#f8fafc" font-size="20" font-weight="bold" text-anchor="middle">String Formats Benchmarks</text>
  <text x="400" y="55" fill="#334155" font-size="12" text-anchor="middle">Operations per second (higher is better)</text>
  <text x="170" y="85" fill="#f8fafc" font-size="13" text-anchor="end">z.email()</text>
  <rect x="180" y="60" width="242.19722772736284" height="18" fill="url(#dhiGrad)" rx="3"/>
  <text x="427.1972277273628" y="74" fill="#10b981" font-size="11">7.7M/s</text>
  <rect x="180" y="80" width="13.033320623308244" height="18" fill="url(#zodGrad)" rx="3"/>
  <text x="198.03332062330824" y="94" fill="#6366f1" font-size="11">0.4M/s</text>
  <rect x="670" y="65" width="70" height="30" fill="#22c55e" rx="15"/>
  <text x="705" y="85" fill="white" font-size="13" font-weight="bold" text-anchor="middle">18.6x</text>
  <text x="170" y="135" fill="#f8fafc" font-size="13" text-anchor="end">z.uuid()</text>
  <rect x="180" y="110" width="226.7008940571405" height="18" fill="url(#dhiGrad)" rx="3"/>
  <text x="411.7008940571405" y="124" fill="#10b981" font-size="11">7.2M/s</text>
  <rect x="180" y="130" width="11.842314772083421" height="18" fill="url(#zodGrad)" rx="3"/>
  <text x="196.84231477208343" y="144" fill="#6366f1" font-size="11">0.4M/s</text>
  <rect x="670" y="115" width="70" height="30" fill="#22c55e" rx="15"/>
  <text x="705" y="135" fill="white" font-size="13" font-weight="bold" text-anchor="middle">19.1x</text>
  <text x="170" y="185" fill="#f8fafc" font-size="13" text-anchor="end">z.url()</text>
  <rect x="180" y="160" width="128.08431752202483" height="18" fill="url(#dhiGrad)" rx="3"/>
  <text x="313.08431752202483" y="174" fill="#10b981" font-size="11">4.1M/s</text>
  <rect x="180" y="180" width="9.38638033494718" height="18" fill="url(#zodGrad)" rx="3"/>
  <text x="194.38638033494718" y="194" fill="#6366f1" font-size="11">0.3M/s</text>
  <rect x="670" y="165" width="70" height="30" fill="#22c55e" rx="15"/>
  <text x="705" y="185" fill="white" font-size="13" font-weight="bold" text-anchor="middle">13.6x</text>
  <text x="170" y="235" fill="#f8fafc" font-size="13" text-anchor="end">z.ipv4()</text>
  <rect x="180" y="210" width="150.95821391833553" height="18" fill="url(#dhiGrad)" rx="3"/>
  <text x="335.95821391833556" y="224" fill="#10b981" font-size="11">4.8M/s</text>
  <rect x="180" y="230" width="10.154684706273365" height="18" fill="url(#zodGrad)" rx="3"/>
  <text x="195.15468470627337" y="244" fill="#6366f1" font-size="11">0.3M/s</text>
  <rect x="670" y="215" width="70" height="30" fill="#22c55e" rx="15"/>
  <text x="705" y="235" fill="white" font-size="13" font-weight="bold" text-anchor="middle">14.9x</text>
  <text x="170" y="285" fill="#f8fafc" font-size="13" text-anchor="end">z.jwt()</text>
  <rect x="180" y="260" width="201.77813465763765" height="18" fill="url(#dhiGrad)" rx="3"/>
  <text x="386.7781346576377" y="274" fill="#10b981" font-size="11">6.4M/s</text>
  <rect x="180" y="280" width="9.691980130820154" height="18" fill="url(#zodGrad)" rx="3"/>
  <text x="194.69198013082016" y="294" fill="#6366f1" font-size="11">0.3M/s</text>
  <rect x="670" y="265" width="70" height="30" fill="#22c55e" rx="15"/>
  <text x="705" y="285" fill="white" font-size="13" font-weight="bold" text-anchor="middle">20.8x</text>
  <text x="170" y="335" fill="#f8fafc" font-size="13" text-anchor="end">z.ulid()</text>
  <rect x="180" y="310" width="470.00000000000006" height="18" fill="url(#dhiGrad)" rx="3"/>
  <text x="655" y="324" fill="#10b981" font-size="11">15.0M/s</text>
  <rect x="180" y="330" width="11.890765066144517" height="18" fill="url(#zodGrad)" rx="3"/>
  <text x="196.89076506614452" y="344" fill="#6366f1" font-size="11">0.4M/s</text>
  <rect x="670" y="315" width="70" height="30" fill="#22c55e" rx="15"/>
  <text x="705" y="335" fill="white" font-size="13" font-weight="bold" text-anchor="middle">39.5x</text>
  <text x="170" y="385" fill="#f8fafc" font-size="13" text-anchor="end">z.nanoid()</text>
  <rect x="180" y="360" width="437.2504838449055" height="18" fill="url(#dhiGrad)" rx="3"/>
  <text x="622.2504838449055" y="374" fill="#10b981" font-size="11">13.9M/s</text>
  <rect x="180" y="380" width="11.835503905944579" height="18" fill="url(#zodGrad)" rx="3"/>
  <text x="196.8355039059446" y="394" fill="#6366f1" font-size="11">0.4M/s</text>
  <rect x="670" y="365" width="70" height="30" fill="#22c55e" rx="15"/>
  <text x="705" y="385" fill="white" font-size="13" font-weight="bold" text-anchor="middle">36.9x</text>
  <text x="170" y="435" fill="#f8fafc" font-size="13" text-anchor="end">z.base64()</text>
  <rect x="180" y="410" width="441.85364984164005" height="18" fill="url(#dhiGrad)" rx="3"/>
  <text x="626.85364984164" y="424" fill="#10b981" font-size="11">14.1M/s</text>
  <rect x="180" y="430" width="10.929547924662026" height="18" fill="url(#zodGrad)" rx="3"/>
  <text x="195.92954792466202" y="444" fill="#6366f1" font-size="11">0.3M/s</text>
  <rect x="670" y="415" width="70" height="30" fill="#22c55e" rx="15"/>
  <text x="705" y="435" fill="white" font-size="13" font-weight="bold" text-anchor="middle">40.4x</text>
  <rect x="660" y="470" width="15" height="15" fill="url(#dhiGrad)"/>
  <text x="680" y="482" fill="#f8fafc" font-size="12">dhi</text>
  <rect x="720" y="470" width="15" height="15" fill="url(#zodGrad)"/>
  <text x="740" y="482" fill="#f8fafc" font-size="12">Zod</text>
</svg>