<svg xmlns="http://www.w3.org/2000/svg" viewBox="0 0 800 250" style="font-family: system-ui, sans-serif;">
  <defs>
    <linearGradient id="dhiGrad" x1="0%" y1="0%" x2="100%" y2="0%">
      <stop offset="0%" style="stop-color:#10b981;stop-opacity:1" />
      <stop offset="100%" style="stop-color:#34d399;stop-opacity:1" />
    </linearGradient>
    <linearGradient id="zodGrad" x1="0%" y1="0%" x2="100%" y2="0%">
      <stop offset="0%" style="stop-color:#6366f1;stop-opacity:1" />
      <stop offset="100%" style="stop-color:#818cf8;stop-opacity:1" />
    </linearGradient>
  </defs>
  <rect width="800" height="250" fill="#0f172a"/>
  <text x="400" y="35" fill="#f8fafc" font-size="20" font-weight="bold" text-anchor="middle">Number Formats Benchmarks</text>
  <text x="400" y="55" fill="#334155" font-size="12" text-anchor="middle">Operations per second (higher is better)</text>
  <text x="170" y="85" fill="#f8fafc" font-size="13" text-anchor="end">z.int()</text>
  <rect x="180" y="60" width="437.4492683272649" height="18" fill="url(#dhiGrad)" rx="3"/>
  <text x="622.4492683272649" y="74" fill="#10b981" font-size="11">23.1M/s</text>
  <rect x="180" y="80" width="7.313784072143117" height="18" fill="url(#zodGrad)" rx="3"/>
  <text x="192.3137840721431" y="94" fill="#6366f1" font-size="11">0.4M/s</text>
  <rect x="670" y="65" width="70" height="30" fill="#22c55e" rx="15"/>
  <text x="705" y="85" fill="white" font-size="13" font-weight="bold" text-anchor="middle">59.8x</text>
  <text x="170" y="135" fill="#f8fafc" font-size="13" text-anchor="end">z.int32()</text>
  <rect x="180" y="110" width="345.28702137151015" height="18" fill="url(#dhiGrad)" rx="3"/>
  <text x="530.2870213715101" y="124" fill="#10b981" font-size="11">18.2M/s</text>
  <rect x="180" y="130" width="7.595221687944582" height="18" fill="url(#zodGrad)" rx="3"/>
  <text x="192.5952216879446" y="144" fill="#6366f1" font-size="11">0.4M/s</text>
  <rect x="670" y="115" width="70" height="30" fill="#22c55e" rx="15"/>
  <text x="705" y="135" fill="white" font-size="13" font-weight="bold" text-anchor="middle">45.5x</text>
  <text x="170" y="185" fill="#f8fafc" font-size="13" text-anchor="end">z.float64()</text>
  <rect x="180" y="160" width="470" height="18" fill="url(#dhiGrad)" rx="3"/>
  <text x="655" y="174" fill="#10b981" font-size="11">24.8M/s</text>
  <rect x="180" y="180" width="7.3815495667095865" height="18" fill="url(#zodGrad)" rx="3"/>
  <text x="192.3815495667096" y="194" fill="#6366f1" font-size="11">0.4M/s</text>
  <rect x="670" y="165" width="70" height="30" fill="#22c55e" rx="15"/>
  <text x="705" y="185" fill="white" font-size="13" font-weight="bold" text-anchor="middle">63.7x</text>
  <rect x="660" y="220" width="15" height="15" fill="url(#dhiGrad)"/>
  <text x="680" y="232" fill="#f8fafc" font-size="12">dhi</text>
  <rect x="720" y="220" width="15" height="15" fill="url(#zodGrad)"/>
  <text x="740" y="232" fill="#f8fafc" font-size="12">Zod</text>
</svg>