<svg xmlns="http://www.w3.org/2000/svg" viewBox="0 0 800 250" style="font-family: system-ui, sans-serif;">
  <defs>
    <linearGradient id="dhiGrad" x1="0%" y1="0%" x2="100%" y2="0%">
      <stop offset="0%" style="stop-color:#059669;stop-opacity:1" />
      <stop offset="100%" style="stop-color:#34d399;stop-opacity:1" />
    </linearGradient>
    <linearGradient id="zodGrad" x1="0%" y1="0%" x2="100%" y2="0%">
      <stop offset="0%" style="stop-color:#4f46e5;stop-opacity:1" />
      <stop offset="100%" style="stop-color:#818cf8;stop-opacity:1" />
    </linearGradient>
  </defs>
  <rect width="800" height="250" fill="#ffffff"/>
  <text x="400" y="35" fill="#1f2937" font-size="20" font-weight="bold" text-anchor="middle">Number Formats Benchmarks</text>
  <text x="400" y="55" fill="#9ca3af" font-size="12" text-anchor="middle">Operations per second (higher is better)</text>
  <text x="170" y="85" fill="#1f2937" font-size="13" text-anchor="end">z.int()</text>
  <rect x="180" y="60" width="437.58859439144646" height="18" fill="url(#dhiGrad)" rx="3"/>
  <text x="622.5885943914465" y="74" fill="#059669" font-size="11">23.4M/s</text>
  <rect x="180" y="80" width="7.407285677995955" height="18" fill="url(#zodGrad)" rx="3"/>
  <text x="192.40728567799596" y="94" fill="#4f46e5" font-size="11">0.4M/s</text>
  <rect x="670" y="65" width="70" height="30" fill="#22c55e" rx="15"/>
  <text x="705" y="85" fill="white" font-size="13" font-weight="bold" text-anchor="middle">59.1x</text>
  <text x="170" y="135" fill="#1f2937" font-size="13" text-anchor="end">z.int32()</text>
  <rect x="180" y="110" width="341.34667159727" height="18" fill="url(#dhiGrad)" rx="3"/>
  <text x="526.34667159727" y="124" fill="#059669" font-size="11">18.3M/s</text>
  <rect x="180" y="130" width="8.128548432041201" height="18" fill="url(#zodGrad)" rx="3"/>
  <text x="193.1285484320412" y="144" fill="#4f46e5" font-size="11">0.4M/s</text>
  <rect x="670" y="115" width="70" height="30" fill="#22c55e" rx="15"/>
  <text x="705" y="135" fill="white" font-size="13" font-weight="bold" text-anchor="middle">42.0x</text>
  <text x="170" y="185" fill="#1f2937" font-size="13" text-anchor="end">z.float64()</text>
  <rect x="180" y="160" width="470" height="18" fill="url(#dhiGrad)" rx="3"/>
  <text x="655" y="174" fill="#059669" font-size="11">25.2M/s</text>
  <rect x="180" y="180" width="7.85139188075183" height="18" fill="url(#zodGrad)" rx="3"/>
  <text x="192.85139188075183" y="194" fill="#4f46e5" font-size="11">0.4M/s</text>
  <rect x="670" y="165" width="70" height="30" fill="#22c55e" rx="15"/>
  <text x="705" y="185" fill="white" font-size="13" font-weight="bold" text-anchor="middle">59.9x</text>
  <rect x="660" y="220" width="15" height="15" fill="url(#dhiGrad)"/>
  <text x="680" y="232" fill="#1f2937" font-size="12">dhi</text>
  <rect x="720" y="220" width="15" height="15" fill="url(#zodGrad)"/>
  <text x="740" y="232" fill="#1f2937" font-size="12">Zod</text>
</svg>