<svg xmlns="http://www.w3.org/2000/svg" viewBox="0 0 800 1175" style="font-family: system-ui, sans-serif;">
  <defs>
    <linearGradient id="speedupGrad" x1="0%" y1="0%" x2="100%" y2="0%">
      <stop offset="0%" style="stop-color:#10b981;stop-opacity:1" />
      <stop offset="50%" style="stop-color:#22d3ee;stop-opacity:1" />
      <stop offset="100%" style="stop-color:#a855f7;stop-opacity:1" />
    </linearGradient>
  </defs>
  <rect width="800" height="1175" fill="#ffffff"/>
  <text x="400" y="35" fill="#1f2937" font-size="20" font-weight="bold" text-anchor="middle">dhi vs Zod 4 — Performance Comparison</text>
  <text x="400" y="55" fill="#9ca3af" font-size="12" text-anchor="middle">Speedup factor (higher is better)</text>
  <text x="170" y="82.5" fill="#1f2937" font-size="13" text-anchor="end">z.coerce.boolean()</text>
  <rect x="180" y="60" width="520" height="31" fill="hsl(160, 80%, 50%)" rx="4"/>
  <text x="708" y="82.5" fill="#1f2937" font-size="13" font-weight="bold">79.7x faster</text>
  <text x="170" y="125.5" fill="#1f2937" font-size="13" text-anchor="end">z.float64()</text>
  <rect x="180" y="103" width="415.89504520395116" height="31" fill="hsl(160, 80%, 50%)" rx="4"/>
  <text x="603.8950452039512" y="125.5" fill="#1f2937" font-size="13" font-weight="bold">63.7x faster</text>
  <text x="170" y="168.5" fill="#1f2937" font-size="13" text-anchor="end">z.int()</text>
  <rect x="180" y="146" width="378.5320294164829" height="31" fill="hsl(160, 80%, 50%)" rx="4"/>
  <text x="566.5320294164828" y="168.5" fill="#1f2937" font-size="13" font-weight="bold">58.0x faster</text>
  <text x="170" y="211.5" fill="#1f2937" font-size="13" text-anchor="end">z.coerce.string()</text>
  <rect x="180" y="189" width="368.96223562594264" height="31" fill="hsl(160, 80%, 50%)" rx="4"/>
  <text x="556.9622356259426" y="211.5" fill="#1f2937" font-size="13" font-weight="bold">56.6x faster</text>
  <text x="170" y="254.5" fill="#1f2937" font-size="13" text-anchor="end">z.int32()</text>
  <rect x="180" y="232" width="301.9321413493899" height="31" fill="hsl(160, 80%, 50%)" rx="4"/>
  <text x="489.9321413493899" y="254.5" fill="#1f2937" font-size="13" font-weight="bold">46.3x faster</text>
  <text x="170" y="297.5" fill="#1f2937" font-size="13" text-anchor="end">z.base64()</text>
  <rect x="180" y="275" width="301.0478459839751" height="31" fill="hsl(160, 80%, 50%)" rx="4"/>
  <text x="489.0478459839751" y="297.5" fill="#1f2937" font-size="13" font-weight="bold">46.1x faster</text>
  <text x="170" y="340.5" fill="#1f2937" font-size="13" text-anchor="end">z.iso.date()</text>
  <rect x="180" y="318" width="269.8671920031317" height="31" fill="hsl(160, 80%, 50%)" rx="4"/>
  <text x="457.8671920031317" y="340.5" fill="#1f2937" font-size="13" font-weight="bold">41.4x faster</text>
  <text x="170" y="383.5" fill="#1f2937" font-size="13" text-anchor="end">z.coerce.number()</text>
  <rect x="180" y="361" width="260.0219204834342" height="31" fill="hsl(159.41735451378332, 80%, 50%)" rx="4"/>
  <text x="448.0219204834342" y="383.5" fill="#1f2937" font-size="13" font-weight="bold">39.9x faster</text>
  <text x="170" y="426.5" fill="#1f2937" font-size="13" text-anchor="end">z.iso.time()</text>
  <rect x="180" y="404" width="255.66186531039196" height="31" fill="hsl(156.74423964743568, 80%, 50%)" rx="4"/>
  <text x="443.66186531039193" y="426.5" fill="#1f2937" font-size="13" font-weight="bold">39.2x faster</text>
  <text x="170" y="469.5" fill="#1f2937" font-size="13" text-anchor="end">z.nanoid()</text>
  <rect x="180" y="447" width="251.91542666151477" height="31" fill="hsl(154.44732815189028, 80%, 50%)" rx="4"/>
  <text x="439.91542666151474" y="469.5" fill="#1f2937" font-size="13" font-weight="bold">38.6x faster</text>
  <text x="170" y="512.5" fill="#1f2937" font-size="13" text-anchor="end">z.ulid()</text>
  <rect x="180" y="490" width="237.62242052175384" height="31" fill="hsl(145.68440069326044, 80%, 50%)" rx="4"/>
  <text x="425.62242052175384" y="512.5" fill="#1f2937" font-size="13" font-weight="bold">36.4x faster</text>
  <text x="170" y="555.5" fill="#1f2937" font-size="13" text-anchor="end">z.stringbool()</text>
  <rect x="180" y="533" width="222.09916353735824" height="31" fill="hsl(136.16721630630943, 80%, 50%)" rx="4"/>
  <text x="410.0991635373582" y="555.5" fill="#1f2937" font-size="13" font-weight="bold">34.0x faster</text>
  <text x="170" y="598.5" fill="#1f2937" font-size="13" text-anchor="end">z.jwt()</text>
  <rect x="180" y="576" width="160.8069995603392" height="31" fill="hsl(98.58948203115669, 80%, 50%)" rx="4"/>
  <text x="348.8069995603392" y="598.5" fill="#1f2937" font-size="13" font-weight="bold">24.6x faster</text>
  <text x="170" y="641.5" fill="#1f2937" font-size="13" text-anchor="end">z.uuid()</text>
  <rect x="180" y="619" width="144.2461507559281" height="31" fill="hsl(88.43615841908006, 80%, 50%)" rx="4"/>
  <text x="332.2461507559281" y="641.5" fill="#1f2937" font-size="13" font-weight="bold">22.1x faster</text>
  <text x="170" y="684.5" fill="#1f2937" font-size="13" text-anchor="end">z.email()</text>
  <rect x="180" y="662" width="130.86446663346175" height="31" fill="hsl(80.23195518199722, 80%, 50%)" rx="4"/>
  <text x="318.86446663346175" y="684.5" fill="#1f2937" font-size="13" font-weight="bold">20.1x faster</text>
  <text x="170" y="727.5" fill="#1f2937" font-size="13" text-anchor="end">z.ipv4()</text>
  <rect x="180" y="705" width="95.02267862354729" height="31" fill="hsl(58.257642343443976, 80%, 50%)" rx="4"/>
  <text x="283.0226786235473" y="727.5" fill="#1f2937" font-size="13" font-weight="bold">14.6x faster</text>
  <text x="170" y="770.5" fill="#1f2937" font-size="13" text-anchor="end">z.iso.datetime()</text>
  <rect x="180" y="748" width="91.59141118183616" height="31" fill="hsl(56.15395978787376, 80%, 50%)" rx="4"/>
  <text x="279.5914111818362" y="770.5" fill="#1f2937" font-size="13" font-weight="bold">14.0x faster</text>
  <text x="170" y="813.5" fill="#1f2937" font-size="13" text-anchor="end">z.url()</text>
  <rect x="180" y="791" width="82.14519751157705" height="31" fill="hsl(50.362561929243675, 80%, 50%)" rx="4"/>
  <text x="270.14519751157707" y="813.5" fill="#1f2937" font-size="13" font-weight="bold">12.6x faster</text>
  <text x="170" y="856.5" fill="#1f2937" font-size="13" text-anchor="end">Array<number></text>
  <rect x="180" y="834" width="58.12212843617785" height="31" fill="hsl(35.63421090336928, 80%, 50%)" rx="4"/>
  <text x="246.12212843617786" y="856.5" fill="#1f2937" font-size="13" font-weight="bold">8.9x faster</text>
  <text x="170" y="899.5" fill="#1f2937" font-size="13" text-anchor="end">Object (valid)</text>
  <rect x="180" y="877" width="33.519908249311214" height="31" fill="hsl(20.550786974863435, 80%, 50%)" rx="4"/>
  <text x="221.51990824931121" y="899.5" fill="#1f2937" font-size="13" font-weight="bold">5.1x faster</text>
  <text x="170" y="942.5" fill="#1f2937" font-size="13" text-anchor="end">Nested Object</text>
  <rect x="180" y="920" width="25.651330982319163" height="31" fill="hsl(15.726625345109285, 80%, 50%)" rx="4"/>
  <text x="213.65133098231917" y="942.5" fill="#1f2937" font-size="13" font-weight="bold">3.9x faster</text>
  <text x="170" y="985.5" fill="#1f2937" font-size="13" text-anchor="end">DiscriminatedUnion</text>
  <rect x="180" y="963" width="13.773011189187736" height="31" fill="hsl(8.444122723910615, 80%, 50%)" rx="4"/>
  <text x="201.77301118918774" y="985.5" fill="#1f2937" font-size="13" font-weight="bold">2.1x faster</text>
  <text x="170" y="1028.5" fill="#1f2937" font-size="13" text-anchor="end">Nullable</text>
  <rect x="180" y="1006" width="12.904788530216873" height="31" fill="hsl(7.911822373368147, 80%, 50%)" rx="4"/>
  <text x="200.90478853021688" y="1028.5" fill="#1f2937" font-size="13" font-weight="bold">2.0x faster</text>
  <text x="170" y="1071.5" fill="#1f2937" font-size="13" text-anchor="end">Optional</text>
  <rect x="180" y="1049" width="12.566700520150336" height="31" fill="hsl(7.704543325288544, 80%, 50%)" rx="4"/>
  <text x="200.56670052015033" y="1071.5" fill="#1f2937" font-size="13" font-weight="bold">1.9x faster</text>
  <text x="170" y="1114.5" fill="#1f2937" font-size="13" text-anchor="end">Union</text>
  <rect x="180" y="1092" width="11.457343041754813" height="31" fill="hsl(7.024405150448923, 80%, 50%)" rx="4"/>
  <text x="199.45734304175483" y="1114.5" fill="#1f2937" font-size="13" font-weight="bold">1.8x faster</text>
  <line x1="366.24917605252534" y1="50" x2="366.24917605252534" y2="1145" stroke="#0891b2" stroke-width="2" stroke-dasharray="5,5"/>
  <text x="366.24917605252534" y="45" fill="#0891b2" font-size="11" text-anchor="middle">Avg: 28.5x</text>
</svg>