<svg xmlns="http://www.w3.org/2000/svg" viewBox="0 0 800 1175">
  <rect width="800" height="1175" fill="#ffffff"/>
  <text x="400" y="35" fill="#1f2937" font-size="20" font-weight="bold" text-anchor="middle" font-family="sans-serif">dhi vs Zod 4 — Performance Comparison</text>
  <text x="400" y="55" fill="#9ca3af" font-size="12" text-anchor="middle" font-family="sans-serif">Speedup factor (higher is better)</text>
  <text x="170" y="82.5" fill="#1f2937" font-size="13" text-anchor="end" font-family="sans-serif">z.coerce.boolean()</text>
  <rect x="180" y="60" width="520" height="31" fill="#10b981" rx="4"/>
  <text x="708" y="82.5" fill="#1f2937" font-size="13" font-weight="bold" font-family="sans-serif">73.9x faster</text>
  <text x="170" y="125.5" fill="#1f2937" font-size="13" text-anchor="end" font-family="sans-serif">z.float64()</text>
  <rect x="180" y="103" width="456" height="31" fill="#10b981" rx="4"/>
  <text x="644" y="125.5" fill="#1f2937" font-size="13" font-weight="bold" font-family="sans-serif">64.9x faster</text>
  <text x="170" y="168.5" fill="#1f2937" font-size="13" text-anchor="end" font-family="sans-serif">z.coerce.string()</text>
  <rect x="180" y="146" width="448" height="31" fill="#10b981" rx="4"/>
  <text x="636" y="168.5" fill="#1f2937" font-size="13" font-weight="bold" font-family="sans-serif">63.6x faster</text>
  <text x="170" y="211.5" fill="#1f2937" font-size="13" text-anchor="end" font-family="sans-serif">z.int()</text>
  <rect x="180" y="189" width="424" height="31" fill="#10b981" rx="4"/>
  <text x="612" y="211.5" fill="#1f2937" font-size="13" font-weight="bold" font-family="sans-serif">60.3x faster</text>
  <text x="170" y="254.5" fill="#1f2937" font-size="13" text-anchor="end" font-family="sans-serif">z.base64()</text>
  <rect x="180" y="232" width="349" height="31" fill="#22c55e" rx="4"/>
  <text x="537" y="254.5" fill="#1f2937" font-size="13" font-weight="bold" font-family="sans-serif">49.6x faster</text>
  <text x="170" y="297.5" fill="#1f2937" font-size="13" text-anchor="end" font-family="sans-serif">z.int32()</text>
  <rect x="180" y="275" width="321" height="31" fill="#22c55e" rx="4"/>
  <text x="509" y="297.5" fill="#1f2937" font-size="13" font-weight="bold" font-family="sans-serif">45.7x faster</text>
  <text x="170" y="340.5" fill="#1f2937" font-size="13" text-anchor="end" font-family="sans-serif">z.iso.time()</text>
  <rect x="180" y="318" width="321" height="31" fill="#22c55e" rx="4"/>
  <text x="509" y="340.5" fill="#1f2937" font-size="13" font-weight="bold" font-family="sans-serif">45.7x faster</text>
  <text x="170" y="383.5" fill="#1f2937" font-size="13" text-anchor="end" font-family="sans-serif">z.iso.date()</text>
  <rect x="180" y="361" width="305" height="31" fill="#22c55e" rx="4"/>
  <text x="493" y="383.5" fill="#1f2937" font-size="13" font-weight="bold" font-family="sans-serif">43.3x faster</text>
  <text x="170" y="426.5" fill="#1f2937" font-size="13" text-anchor="end" font-family="sans-serif">z.ulid()</text>
  <rect x="180" y="404" width="299" height="31" fill="#22c55e" rx="4"/>
  <text x="487" y="426.5" fill="#1f2937" font-size="13" font-weight="bold" font-family="sans-serif">42.5x faster</text>
  <text x="170" y="469.5" fill="#1f2937" font-size="13" text-anchor="end" font-family="sans-serif">z.nanoid()</text>
  <rect x="180" y="447" width="288" height="31" fill="#22c55e" rx="4"/>
  <text x="476" y="469.5" fill="#1f2937" font-size="13" font-weight="bold" font-family="sans-serif">40.9x faster</text>
  <text x="170" y="512.5" fill="#1f2937" font-size="13" text-anchor="end" font-family="sans-serif">z.coerce.number()</text>
  <rect x="180" y="490" width="283" height="31" fill="#22c55e" rx="4"/>
  <text x="471" y="512.5" fill="#1f2937" font-size="13" font-weight="bold" font-family="sans-serif">40.3x faster</text>
  <text x="170" y="555.5" fill="#1f2937" font-size="13" text-anchor="end" font-family="sans-serif">z.stringbool()</text>
  <rect x="180" y="533" width="266" height="31" fill="#22c55e" rx="4"/>
  <text x="454" y="555.5" fill="#1f2937" font-size="13" font-weight="bold" font-family="sans-serif">37.8x faster</text>
  <text x="170" y="598.5" fill="#1f2937" font-size="13" text-anchor="end" font-family="sans-serif">z.jwt()</text>
  <rect x="180" y="576" width="180" height="31" fill="#84cc16" rx="4"/>
  <text x="368" y="598.5" fill="#1f2937" font-size="13" font-weight="bold" font-family="sans-serif">25.6x faster</text>
  <text x="170" y="641.5" fill="#1f2937" font-size="13" text-anchor="end" font-family="sans-serif">z.uuid()</text>
  <rect x="180" y="619" width="157" height="31" fill="#84cc16" rx="4"/>
  <text x="345" y="641.5" fill="#1f2937" font-size="13" font-weight="bold" font-family="sans-serif">22.3x faster</text>
  <text x="170" y="684.5" fill="#1f2937" font-size="13" text-anchor="end" font-family="sans-serif">z.email()</text>
  <rect x="180" y="662" width="141" height="31" fill="#eab308" rx="4"/>
  <text x="329" y="684.5" fill="#1f2937" font-size="13" font-weight="bold" font-family="sans-serif">20.0x faster</text>
  <text x="170" y="727.5" fill="#1f2937" font-size="13" text-anchor="end" font-family="sans-serif">z.iso.datetime()</text>
  <rect x="180" y="705" width="106" height="31" fill="#eab308" rx="4"/>
  <text x="294" y="727.5" fill="#1f2937" font-size="13" font-weight="bold" font-family="sans-serif">15.1x faster</text>
  <text x="170" y="770.5" fill="#1f2937" font-size="13" text-anchor="end" font-family="sans-serif">z.ipv4()</text>
  <rect x="180" y="748" width="100" height="31" fill="#eab308" rx="4"/>
  <text x="288" y="770.5" fill="#1f2937" font-size="13" font-weight="bold" font-family="sans-serif">14.2x faster</text>
  <text x="170" y="813.5" fill="#1f2937" font-size="13" text-anchor="end" font-family="sans-serif">z.url()</text>
  <rect x="180" y="791" width="95" height="31" fill="#eab308" rx="4"/>
  <text x="283" y="813.5" fill="#1f2937" font-size="13" font-weight="bold" font-family="sans-serif">13.4x faster</text>
  <text x="170" y="856.5" fill="#1f2937" font-size="13" text-anchor="end" font-family="sans-serif">Array<number></text>
  <rect x="180" y="834" width="61" height="31" fill="#f97316" rx="4"/>
  <text x="249" y="856.5" fill="#1f2937" font-size="13" font-weight="bold" font-family="sans-serif">8.7x faster</text>
  <text x="170" y="899.5" fill="#1f2937" font-size="13" text-anchor="end" font-family="sans-serif">Object (valid)</text>
  <rect x="180" y="877" width="28" height="31" fill="#f97316" rx="4"/>
  <text x="216" y="899.5" fill="#1f2937" font-size="13" font-weight="bold" font-family="sans-serif">4.0x faster</text>
  <text x="170" y="942.5" fill="#1f2937" font-size="13" text-anchor="end" font-family="sans-serif">Nested Object</text>
  <rect x="180" y="920" width="28" height="31" fill="#f97316" rx="4"/>
  <text x="216" y="942.5" fill="#1f2937" font-size="13" font-weight="bold" font-family="sans-serif">4.0x faster</text>
  <text x="170" y="985.5" fill="#1f2937" font-size="13" text-anchor="end" font-family="sans-serif">Optional</text>
  <rect x="180" y="963" width="15" height="31" fill="#f97316" rx="4"/>
  <text x="203" y="985.5" fill="#1f2937" font-size="13" font-weight="bold" font-family="sans-serif">2.1x faster</text>
  <text x="170" y="1028.5" fill="#1f2937" font-size="13" text-anchor="end" font-family="sans-serif">Nullable</text>
  <rect x="180" y="1006" width="15" height="31" fill="#f97316" rx="4"/>
  <text x="203" y="1028.5" fill="#1f2937" font-size="13" font-weight="bold" font-family="sans-serif">2.1x faster</text>
  <text x="170" y="1071.5" fill="#1f2937" font-size="13" text-anchor="end" font-family="sans-serif">DiscriminatedUnion</text>
  <rect x="180" y="1049" width="14" height="31" fill="#f97316" rx="4"/>
  <text x="202" y="1071.5" fill="#1f2937" font-size="13" font-weight="bold" font-family="sans-serif">2.0x faster</text>
  <text x="170" y="1114.5" fill="#1f2937" font-size="13" text-anchor="end" font-family="sans-serif">Union</text>
  <rect x="180" y="1092" width="11" height="31" fill="#f97316" rx="4"/>
  <text x="199" y="1114.5" fill="#1f2937" font-size="13" font-weight="bold" font-family="sans-serif">1.5x faster</text>
  <line x1="389" y1="50" x2="389" y2="1145" stroke="#0891b2" stroke-width="2" stroke-dasharray="5,5"/>
  <text x="389" y="45" fill="#0891b2" font-size="11" text-anchor="middle" font-family="sans-serif">Avg: 29.7x</text>
</svg>