<svg xmlns="http://www.w3.org/2000/svg" viewBox="0 0 800 600">
  <rect width="800" height="600" fill="#ffffff"/>
  <text x="400" y="35" fill="#1f2937" font-size="20" font-weight="bold" text-anchor="middle" font-family="sans-serif">Top 10 Performance Gains</text>
  <text x="400" y="55" fill="#9ca3af" font-size="12" text-anchor="middle" font-family="sans-serif">Operations per second (higher is better)</text>
  <text x="170" y="85" fill="#1f2937" font-size="13" text-anchor="end" font-family="sans-serif">z.coerce.boolean()</text>
  <rect x="180" y="60" width="470" height="18" fill="#059669" rx="3"/>
  <text x="655" y="74" fill="#059669" font-size="11" font-family="sans-serif">32.4M/s</text>
  <rect x="180" y="80" width="6" height="18" fill="#4f46e5" rx="3"/>
  <text x="191" y="94" fill="#4f46e5" font-size="11" font-family="sans-serif">0.4M/s</text>
  <rect x="670" y="65" width="70" height="30" fill="#22c55e" rx="15"/>
  <text x="705" y="85" fill="white" font-size="13" font-weight="bold" text-anchor="middle" font-family="sans-serif">73.9x</text>
  <text x="170" y="135" fill="#1f2937" font-size="13" text-anchor="end" font-family="sans-serif">z.float64()</text>
  <rect x="180" y="110" width="314" height="18" fill="#059669" rx="3"/>
  <text x="499" y="124" fill="#059669" font-size="11" font-family="sans-serif">21.6M/s</text>
  <rect x="180" y="130" width="5" height="18" fill="#4f46e5" rx="3"/>
  <text x="190" y="144" fill="#4f46e5" font-size="11" font-family="sans-serif">0.3M/s</text>
  <rect x="670" y="115" width="70" height="30" fill="#22c55e" rx="15"/>
  <text x="705" y="135" fill="white" font-size="13" font-weight="bold" text-anchor="middle" font-family="sans-serif">64.9x</text>
  <text x="170" y="185" fill="#1f2937" font-size="13" text-anchor="end" font-family="sans-serif">z.coerce.string()</text>
  <rect x="180" y="160" width="223" height="18" fill="#059669" rx="3"/>
  <text x="408" y="174" fill="#059669" font-size="11" font-family="sans-serif">15.3M/s</text>
  <rect x="180" y="180" width="3" height="18" fill="#4f46e5" rx="3"/>
  <text x="188" y="194" fill="#4f46e5" font-size="11" font-family="sans-serif">0.2M/s</text>
  <rect x="670" y="165" width="70" height="30" fill="#22c55e" rx="15"/>
  <text x="705" y="185" fill="white" font-size="13" font-weight="bold" text-anchor="middle" font-family="sans-serif">63.6x</text>
  <text x="170" y="235" fill="#1f2937" font-size="13" text-anchor="end" font-family="sans-serif">z.int()</text>
  <rect x="180" y="210" width="291" height="18" fill="#059669" rx="3"/>
  <text x="476" y="224" fill="#059669" font-size="11" font-family="sans-serif">20.0M/s</text>
  <rect x="180" y="230" width="5" height="18" fill="#4f46e5" rx="3"/>
  <text x="190" y="244" fill="#4f46e5" font-size="11" font-family="sans-serif">0.3M/s</text>
  <rect x="670" y="215" width="70" height="30" fill="#22c55e" rx="15"/>
  <text x="705" y="235" fill="white" font-size="13" font-weight="bold" text-anchor="middle" font-family="sans-serif">60.3x</text>
  <text x="170" y="285" fill="#1f2937" font-size="13" text-anchor="end" font-family="sans-serif">z.base64()</text>
  <rect x="180" y="260" width="211" height="18" fill="#059669" rx="3"/>
  <text x="396" y="274" fill="#059669" font-size="11" font-family="sans-serif">14.5M/s</text>
  <rect x="180" y="280" width="4" height="18" fill="#4f46e5" rx="3"/>
  <text x="189" y="294" fill="#4f46e5" font-size="11" font-family="sans-serif">0.3M/s</text>
  <rect x="670" y="265" width="70" height="30" fill="#22c55e" rx="15"/>
  <text x="705" y="285" fill="white" font-size="13" font-weight="bold" text-anchor="middle" font-family="sans-serif">49.6x</text>
  <text x="170" y="335" fill="#1f2937" font-size="13" text-anchor="end" font-family="sans-serif">z.int32()</text>
  <rect x="180" y="310" width="225" height="18" fill="#059669" rx="3"/>
  <text x="410" y="324" fill="#059669" font-size="11" font-family="sans-serif">15.5M/s</text>
  <rect x="180" y="330" width="5" height="18" fill="#4f46e5" rx="3"/>
  <text x="190" y="344" fill="#4f46e5" font-size="11" font-family="sans-serif">0.3M/s</text>
  <rect x="670" y="315" width="70" height="30" fill="#22c55e" rx="15"/>
  <text x="705" y="335" fill="white" font-size="13" font-weight="bold" text-anchor="middle" font-family="sans-serif">45.7x</text>
  <text x="170" y="385" fill="#1f2937" font-size="13" text-anchor="end" font-family="sans-serif">z.iso.time()</text>
  <rect x="180" y="360" width="192" height="18" fill="#059669" rx="3"/>
  <text x="377" y="374" fill="#059669" font-size="11" font-family="sans-serif">13.2M/s</text>
  <rect x="180" y="380" width="4" height="18" fill="#4f46e5" rx="3"/>
  <text x="189" y="394" fill="#4f46e5" font-size="11" font-family="sans-serif">0.3M/s</text>
  <rect x="670" y="365" width="70" height="30" fill="#22c55e" rx="15"/>
  <text x="705" y="385" fill="white" font-size="13" font-weight="bold" text-anchor="middle" font-family="sans-serif">45.7x</text>
  <text x="170" y="435" fill="#1f2937" font-size="13" text-anchor="end" font-family="sans-serif">z.iso.date()</text>
  <rect x="180" y="410" width="180" height="18" fill="#059669" rx="3"/>
  <text x="365" y="424" fill="#059669" font-size="11" font-family="sans-serif">12.4M/s</text>
  <rect x="180" y="430" width="4" height="18" fill="#4f46e5" rx="3"/>
  <text x="189" y="444" fill="#4f46e5" font-size="11" font-family="sans-serif">0.3M/s</text>
  <rect x="670" y="415" width="70" height="30" fill="#22c55e" rx="15"/>
  <text x="705" y="435" fill="white" font-size="13" font-weight="bold" text-anchor="middle" font-family="sans-serif">43.3x</text>
  <text x="170" y="485" fill="#1f2937" font-size="13" text-anchor="end" font-family="sans-serif">z.ulid()</text>
  <rect x="180" y="460" width="204" height="18" fill="#059669" rx="3"/>
  <text x="389" y="474" fill="#059669" font-size="11" font-family="sans-serif">14.1M/s</text>
  <rect x="180" y="480" width="5" height="18" fill="#4f46e5" rx="3"/>
  <text x="190" y="494" fill="#4f46e5" font-size="11" font-family="sans-serif">0.3M/s</text>
  <rect x="670" y="465" width="70" height="30" fill="#22c55e" rx="15"/>
  <text x="705" y="485" fill="white" font-size="13" font-weight="bold" text-anchor="middle" font-family="sans-serif">42.5x</text>
  <text x="170" y="535" fill="#1f2937" font-size="13" text-anchor="end" font-family="sans-serif">z.nanoid()</text>
  <rect x="180" y="510" width="190" height="18" fill="#059669" rx="3"/>
  <text x="375" y="524" fill="#059669" font-size="11" font-family="sans-serif">13.1M/s</text>
  <rect x="180" y="530" width="5" height="18" fill="#4f46e5" rx="3"/>
  <text x="190" y="544" fill="#4f46e5" font-size="11" font-family="sans-serif">0.3M/s</text>
  <rect x="670" y="515" width="70" height="30" fill="#22c55e" rx="15"/>
  <text x="705" y="535" fill="white" font-size="13" font-weight="bold" text-anchor="middle" font-family="sans-serif">40.9x</text>
  <rect x="660" y="570" width="15" height="15" fill="#059669"/>
  <text x="680" y="582" fill="#1f2937" font-size="12" font-family="sans-serif">dhi</text>
  <rect x="720" y="570" width="15" height="15" fill="#4f46e5"/>
  <text x="740" y="582" fill="#1f2937" font-size="12" font-family="sans-serif">Zod</text>
</svg>