<svg xmlns="http://www.w3.org/2000/svg" viewBox="0 0 800 600" style="font-family: system-ui, sans-serif;">
  <defs>
    <linearGradient id="dhiGrad" x1="0%" y1="0%" x2="100%" y2="0%">
      <stop offset="0%" style="stop-color:#059669;stop-opacity:1" />
      <stop offset="100%" style="stop-color:#34d399;stop-opacity:1" />
    </linearGradient>
    <linearGradient id="zodGrad" x1="0%" y1="0%" x2="100%" y2="0%">
      <stop offset="0%" style="stop-color:#4f46e5;stop-opacity:1" />
      <stop offset="100%" style="stop-color:#818cf8;stop-opacity:1" />
    </linearGradient>
  </defs>
  <rect width="800" height="600" fill="#ffffff"/>
  <text x="400" y="35" fill="#1f2937" font-size="20" font-weight="bold" text-anchor="middle">Top 10 Performance Gains</text>
  <text x="400" y="55" fill="#9ca3af" font-size="12" text-anchor="middle">Operations per second (higher is better)</text>
  <text x="170" y="85" fill="#1f2937" font-size="13" text-anchor="end">z.coerce.boolean()</text>
  <rect x="180" y="60" width="470" height="18" fill="url(#dhiGrad)" rx="3"/>
  <text x="655" y="74" fill="#059669" font-size="11">39.5M/s</text>
  <rect x="180" y="80" width="5.896969334648506" height="18" fill="url(#zodGrad)" rx="3"/>
  <text x="190.8969693346485" y="94" fill="#4f46e5" font-size="11">0.5M/s</text>
  <rect x="670" y="65" width="70" height="30" fill="#22c55e" rx="15"/>
  <text x="705" y="85" fill="white" font-size="13" font-weight="bold" text-anchor="middle">79.7x</text>
  <text x="170" y="135" fill="#1f2937" font-size="13" text-anchor="end">z.float64()</text>
  <rect x="180" y="110" width="282.1889623590275" height="18" fill="url(#dhiGrad)" rx="3"/>
  <text x="467.1889623590275" y="124" fill="#059669" font-size="11">23.7M/s</text>
  <rect x="180" y="130" width="4.426807440935837" height="18" fill="url(#zodGrad)" rx="3"/>
  <text x="189.42680744093585" y="144" fill="#4f46e5" font-size="11">0.4M/s</text>
  <rect x="670" y="115" width="70" height="30" fill="#22c55e" rx="15"/>
  <text x="705" y="135" fill="white" font-size="13" font-weight="bold" text-anchor="middle">63.7x</text>
  <text x="170" y="185" fill="#1f2937" font-size="13" text-anchor="end">z.int()</text>
  <rect x="180" y="160" width="265.73814413338283" height="18" fill="url(#dhiGrad)" rx="3"/>
  <text x="450.73814413338283" y="174" fill="#059669" font-size="11">22.3M/s</text>
  <rect x="180" y="180" width="4.580212414744233" height="18" fill="url(#zodGrad)" rx="3"/>
  <text x="189.58021241474424" y="194" fill="#4f46e5" font-size="11">0.4M/s</text>
  <rect x="670" y="165" width="70" height="30" fill="#22c55e" rx="15"/>
  <text x="705" y="185" fill="white" font-size="13" font-weight="bold" text-anchor="middle">58.0x</text>
  <text x="170" y="235" fill="#1f2937" font-size="13" text-anchor="end">z.coerce.string()</text>
  <rect x="180" y="210" width="182.00183787789695" height="18" fill="url(#dhiGrad)" rx="3"/>
  <text x="367.00183787789695" y="224" fill="#059669" font-size="11">15.3M/s</text>
  <rect x="180" y="230" width="3.2183124960842178" height="18" fill="url(#zodGrad)" rx="3"/>
  <text x="188.21831249608422" y="244" fill="#4f46e5" font-size="11">0.3M/s</text>
  <rect x="670" y="215" width="70" height="30" fill="#22c55e" rx="15"/>
  <text x="705" y="235" fill="white" font-size="13" font-weight="bold" text-anchor="middle">56.6x</text>
  <text x="170" y="285" fill="#1f2937" font-size="13" text-anchor="end">z.int32()</text>
  <rect x="180" y="260" width="205.6397558158651" height="18" fill="url(#dhiGrad)" rx="3"/>
  <text x="390.6397558158651" y="274" fill="#059669" font-size="11">17.3M/s</text>
  <rect x="180" y="280" width="4.443570628492072" height="18" fill="url(#zodGrad)" rx="3"/>
  <text x="189.44357062849207" y="294" fill="#4f46e5" font-size="11">0.4M/s</text>
  <rect x="670" y="265" width="70" height="30" fill="#22c55e" rx="15"/>
  <text x="705" y="285" fill="white" font-size="13" font-weight="bold" text-anchor="middle">46.3x</text>
  <text x="170" y="335" fill="#1f2937" font-size="13" text-anchor="end">z.base64()</text>
  <rect x="180" y="310" width="173.04522605547712" height="18" fill="url(#dhiGrad)" rx="3"/>
  <text x="358.0452260554771" y="324" fill="#059669" font-size="11">14.5M/s</text>
  <rect x="180" y="330" width="3.7502347478878018" height="18" fill="url(#zodGrad)" rx="3"/>
  <text x="188.7502347478878" y="344" fill="#4f46e5" font-size="11">0.3M/s</text>
  <rect x="670" y="315" width="70" height="30" fill="#22c55e" rx="15"/>
  <text x="705" y="335" fill="white" font-size="13" font-weight="bold" text-anchor="middle">46.1x</text>
  <text x="170" y="385" fill="#1f2937" font-size="13" text-anchor="end">z.iso.date()</text>
  <rect x="180" y="360" width="157.0133816537569" height="18" fill="url(#dhiGrad)" rx="3"/>
  <text x="342.01338165375694" y="374" fill="#059669" font-size="11">13.2M/s</text>
  <rect x="180" y="380" width="3.795953923033304" height="18" fill="url(#zodGrad)" rx="3"/>
  <text x="188.7959539230333" y="394" fill="#4f46e5" font-size="11">0.3M/s</text>
  <rect x="670" y="365" width="70" height="30" fill="#22c55e" rx="15"/>
  <text x="705" y="385" fill="white" font-size="13" font-weight="bold" text-anchor="middle">41.4x</text>
  <text x="170" y="435" fill="#1f2937" font-size="13" text-anchor="end">z.coerce.number()</text>
  <rect x="180" y="410" width="205.24368557597813" height="18" fill="url(#dhiGrad)" rx="3"/>
  <text x="390.24368557597813" y="424" fill="#059669" font-size="11">17.3M/s</text>
  <rect x="180" y="430" width="5.149845478290951" height="18" fill="url(#zodGrad)" rx="3"/>
  <text x="190.14984547829096" y="444" fill="#4f46e5" font-size="11">0.4M/s</text>
  <rect x="670" y="415" width="70" height="30" fill="#22c55e" rx="15"/>
  <text x="705" y="435" fill="white" font-size="13" font-weight="bold" text-anchor="middle">39.9x</text>
  <text x="170" y="485" fill="#1f2937" font-size="13" text-anchor="end">z.iso.time()</text>
  <rect x="180" y="460" width="148.22774627005975" height="18" fill="url(#dhiGrad)" rx="3"/>
  <text x="333.22774627005975" y="474" fill="#059669" font-size="11">12.5M/s</text>
  <rect x="180" y="480" width="3.7826652284885993" height="18" fill="url(#zodGrad)" rx="3"/>
  <text x="188.7826652284886" y="494" fill="#4f46e5" font-size="11">0.3M/s</text>
  <rect x="670" y="465" width="70" height="30" fill="#22c55e" rx="15"/>
  <text x="705" y="485" fill="white" font-size="13" font-weight="bold" text-anchor="middle">39.2x</text>
  <text x="170" y="535" fill="#1f2937" font-size="13" text-anchor="end">z.nanoid()</text>
  <rect x="180" y="510" width="160.4069685382555" height="18" fill="url(#dhiGrad)" rx="3"/>
  <text x="345.4069685382555" y="524" fill="#059669" font-size="11">13.5M/s</text>
  <rect x="180" y="530" width="4.154347516598132" height="18" fill="url(#zodGrad)" rx="3"/>
  <text x="189.15434751659814" y="544" fill="#4f46e5" font-size="11">0.3M/s</text>
  <rect x="670" y="515" width="70" height="30" fill="#22c55e" rx="15"/>
  <text x="705" y="535" fill="white" font-size="13" font-weight="bold" text-anchor="middle">38.6x</text>
  <rect x="660" y="570" width="15" height="15" fill="url(#dhiGrad)"/>
  <text x="680" y="582" fill="#1f2937" font-size="12">dhi</text>
  <rect x="720" y="570" width="15" height="15" fill="url(#zodGrad)"/>
  <text x="740" y="582" fill="#1f2937" font-size="12">Zod</text>
</svg>